<!DOCTYPE svg PUBLIC "-//W3C//DTD SVG 20010904//EN" "http://www.w3.org/TR/2001/REC-SVG-20010904/DTD/svg10.dtd">
<svg xmlns="http://www.w3.org/2000/svg" viewBox="0 0 500 500">
  <defs>
    <style>
      .cls-1 {
        fill: #fff;
        opacity: 0;
      }
      .cls-2 {
        fill: none;
        stroke: #000;
        stroke-miterlimit: 10;
        stroke-width: 6px;
      }
    </style>
    <style>
      :root {
        --full-dur: 5s;
      }
      #sad {
        opacity: 1;
        transform-origin: 250px 250px;
        animation: sad_flip ease-in-out var(--full-dur) 0s forwards infinite;
      }
      @keyframes sad_flip {
        0% {
          opacity: 1;
          transform: scale(1, 1);
        }
        24.9% {
          opacity: 1;
        }
        25% {
          opacity: 0;
        }
        50% {
          opacity: 0;
          transform: scale(-1, 1);
        }
        74.9% {
          opacity: 0;
        }
        75% {
          opacity: 1;
        }
        100% {
          opacity: 1;
          transform: scale(1, 1);
        }
      }
      #smile {
        opacity: 0;
        transform-origin: 250px 250px;
        animation: smile_flip ease-in-out var(--full-dur) 0s forwards infinite;
      }
      @keyframes smile_flip {
        0% {
          opacity: 0;
          transform: scale(-1, 1);
        }
        24.9% {
          opacity: 0;
        }
        25% {
          opacity: 1;
        }
        50% {
          opacity: 1;
          transform: scale(1, 1);
        }
        74.9% {
          opacity: 1;
        }
        75% {
          opacity: 0;
        }
        100% {
          opacity: 0;
          transform: scale(-1, 1);
        }
      }
    </style>
  </defs>
  <g id="bg_layer">
    <rect id="bg" class="cls-1" width="500" height="500"/>
  </g>
  <g id="sad">
    <path d="M210,300.682a44.04,44.04,0,0,1,80,0,92.874,92.874,0,0,0-80,0Z"/>
    <circle cx="205.5" cy="192.934" r="17.5"/>
    <path d="M303.676,207.378c-7.619,10.577-9.341,21.163-5.009,25.92.073.08.149.161.231.242a6.8,6.8,0,0,0,9.556,0c.081-.082.158-.162.23-.242C313.016,228.541,311.3,217.955,303.676,207.378Z"/>
    <circle cx="294.5" cy="192.934" r="17.5"/>
  </g>
  <g id="smile">
    <path d="M266.343,209.294c6.449-18.9,21.825-28.221,32.873-24.793,7.956,2.468,12.026,11.038,13.284,14.013a37.878,37.878,0,0,0-10.218-2.7C284.313,193.729,270.372,205.6,266.343,209.294Z"/>
    <path d="M233.657,209.294c-6.449-18.9-21.825-28.221-32.873-24.793-7.956,2.468-12.026,11.038-13.284,14.013a37.878,37.878,0,0,1,10.218-2.7C215.687,193.729,229.628,205.6,233.657,209.294Z"/>
    <path d="M194.391,252.265c7.9,25.242,30.4,44.8,55.609,44.8s47.714-19.559,55.609-44.8c-1.6,2.458-20.789,29.644-55.609,29.644S195.988,254.723,194.391,252.265Z"/>
  </g>
  <g id="logo">
    <path
      id="outer"
      class="cls-2"
      d="M129.443,379.814l-30.75,11.52-29.15-50.491-29.151-50.49,25.351-20.87c-2.718-15.61-9.752-67.522,19.831-122.03,32.524-59.925,86.9-81.7,100.726-86.781l5.4-32.39H308.3l5.4,32.39c9.433,1.687,64.626,27.262,100.726,86.781,38.19,62.967,22.821,113.739,19.831,122.03l25.351,20.87-29.151,50.49-29.15,50.491-30.75-11.52C358.609,389.428,319.37,426.731,250,423.655,191.083,421.042,142.686,390.512,129.443,379.814Z"/>
    <g id="text">
      <path
        d="M117.928,444.968a8.525,8.525,0,0,1-4.15,7.55,11.829,11.829,0,0,1-6.6,1.7,24.26,24.26,0,0,1-3.85-.35v14.2a6.118,6.118,0,0,0,.1,1.45,1.3,1.3,0,0,0,1.1.85,20.554,20.554,0,0,0,2.8.2c.367,0,.55.117.55.349q0,.5-.7.5h-11.5q-1.5,0-1.5-.5,0-.351,1.051-.351,2.349,0,2.7-.449.4-.2.45-1V439.571q0-1.551-.85-1.9a5.317,5.317,0,0,0-1.75-.2h-.85q-.75,0-.75-.4,0-.448,1.4-.448h11q5.7,0,8.35,2A7.474,7.474,0,0,1,117.928,444.968Zm-5.25.048q0-7.548-6.3-7.548a3.832,3.832,0,0,0-2.75.7,2.523,2.523,0,0,0-.3,1.56v13.386a7.206,7.206,0,0,0,.9.049,10.232,10.232,0,0,0,5.6-1.459Q112.679,449.9,112.678,445.016Z"/>
      <path
        d="M142.828,470.118q0,1.6-2.789,1.6a5.431,5.431,0,0,1-4.385-2.042,4.84,4.84,0,0,1-1-1.792,34.768,34.768,0,0,1-.6-4.232,4.164,4.164,0,0,0-1.37-2.988,7.051,7.051,0,0,0-3.861-.946v10.3q-.15.7,2.508.7c.362,0,.542.117.542.35s-.233.349-.7.349h-8.05q-1.4,0-1.4-.326c0-.248.167-.373.5-.373h.7q1.7,0,1.7-.7v-19.75a.807.807,0,0,0-.275-.726,3.514,3.514,0,0,0-1.45-.174q-1.175,0-1.175-.4,0-.349.7-.35h9.45a9.442,9.442,0,0,1,5.375,1.369,4.175,4.175,0,0,1,2.025,3.608,4.645,4.645,0,0,1-2.15,3.958,11.707,11.707,0,0,1-6.05,1.767q4.2.449,5.775,2.19t2.025,6.272q.3,3.086,1.851,3.086c.166,0,.25-.048.25-.146a1.484,1.484,0,0,0-.125-.316,1.071,1.071,0,0,1-.125-.414c0-.616.332-.924,1-.924Q142.827,469.068,142.828,470.118Zm-7.9-16.173q0-4.478-4.414-4.477a2.671,2.671,0,0,0-1.413.224c-.183.149-.273.506-.273,1.069v8.156Q134.929,458.917,134.928,453.945Z"/>
      <path
        d="M168.878,460.143a11.574,11.574,0,0,1-3.149,8.207,10.145,10.145,0,0,1-7.7,3.368,10.954,10.954,0,0,1-8.174-3.418,12.433,12.433,0,0,1-.151-16.764,10.838,10.838,0,0,1,8.125-3.268,10.317,10.317,0,0,1,7.875,3.418A11.958,11.958,0,0,1,168.878,460.143Zm-4.7.149q0-5.787-2.35-9.128a4.79,4.79,0,0,0-4.15-2.146q-3.651,0-5.3,3.99a18.756,18.756,0,0,0-1.149,7.085q0,5.139,1.8,8.031a5.6,5.6,0,0,0,5,2.894Q164.178,471.018,164.178,460.292Z"/>
      <path
        d="M189.827,464.948a6.02,6.02,0,0,1-2.4,4.779,8.788,8.788,0,0,1-5.8,1.991,10.5,10.5,0,0,1-5.25-1.554,1.752,1.752,0,0,0-.4-.1c-.2,0-.318.158-.351.471a5.058,5.058,0,0,1-.149.826.466.466,0,0,1-.5.353.442.442,0,0,1-.5-.5c0-.066.032-.566.1-1.5s.1-1.733.1-2.4v-2.55q0-.95.5-.95t.75,1.55q.95,5.5,5.9,5.5,4.2,0,4.2-4.181a4.377,4.377,0,0,0-1-2.987,13.32,13.32,0,0,0-3.9-2.589,20.094,20.094,0,0,1-4.85-2.987,5.046,5.046,0,0,1-1.35-3.585,5.744,5.744,0,0,1,2-4.5,7.346,7.346,0,0,1,5.051-1.767,8.65,8.65,0,0,1,4.049,1.149.845.845,0,0,0,.4.151c.233,0,.383-.241.45-.725s.267-.725.6-.725a.443.443,0,0,1,.5.5,3.191,3.191,0,0,1-.051.4,17.035,17.035,0,0,0-.1,2.05q0,.75.151,2.7a1.932,1.932,0,0,1,.049.45q0,.6-.4.6-.45,0-.649-.893a6.516,6.516,0,0,0-1.826-3.493,4.519,4.519,0,0,0-3.225-1.314q-3.6,0-3.6,3.833a4.1,4.1,0,0,0,.95,2.788,4.159,4.159,0,0,0,1.1.945q.6.349,3.5,1.742a15.888,15.888,0,0,1,4.6,3.062A4.951,4.951,0,0,1,189.827,464.948Z"/>
      <path
        d="M217.227,460.143a11.571,11.571,0,0,1-3.15,8.207,10.143,10.143,0,0,1-7.7,3.368A10.957,10.957,0,0,1,198.2,468.3a12.435,12.435,0,0,1-.15-16.764,10.838,10.838,0,0,1,8.125-3.268,10.317,10.317,0,0,1,7.875,3.418A11.958,11.958,0,0,1,217.227,460.143Zm-4.7.149q0-5.787-2.349-9.128a4.79,4.79,0,0,0-4.151-2.146q-3.65,0-5.3,3.99a18.754,18.754,0,0,0-1.15,7.085q0,5.139,1.8,8.031a5.6,5.6,0,0,0,5,2.894Q212.527,471.018,212.526,460.292Z"/>
      <path
        d="M239.676,454.118a5.261,5.261,0,0,1-2.239,4.424,9.554,9.554,0,0,1-5.873,1.676q-.547,0-1.99-.15h-.3v9.05q0,1.35.664,1.475a10.959,10.959,0,0,0,1.9.125q.541,0,.542.35,0,.251-.575.3t-3.975.049q-4.251,0-4.95-.045c-.468-.032-.7-.14-.7-.328,0-.251.133-.359.4-.326h.75q1.149-.1,1.35-.125a.4.4,0,0,0,.3-.176,6.688,6.688,0,0,0,.1-1.7v-16.75a19.885,19.885,0,0,0-.051-2.15q-.151-.45-1.629-.45h-.661c-.374,0-.559-.133-.559-.4,0-.167.183-.266.552-.3s1.621-.049,3.76-.049a68.852,68.852,0,0,1,7.873.25Q239.676,449.768,239.676,454.118Zm-4.35.024q0-4.774-4.215-4.774a3.446,3.446,0,0,0-1.538.2q-.3.2-.3,1.155v8.643Q235.326,459.368,235.326,454.142Z"/>
      <path
        d="M266.475,471.118q0,.3-1,.3h-9.85c-.6,0-.9-.131-.9-.4s.6-.413,1.8-.446q2.15-.051,2.149-.5a6.733,6.733,0,0,0-.3-.945q-.1-.394-1.15-3.327l-.6-1.688h-7.149a32.53,32.53,0,0,0-2.051,5.95q0,.45.6.5l.65.05h.75l.45.15c.4,0,.6.1.6.3q0,.346-1.051.346-.15,0-1.775-.074t-2.875-.075h-.45l-.45.075-.55.074h-.1c-.534,0-.8-.1-.8-.3,0-.234.218-.368.65-.4q.9-.05,1.2-.1a1.887,1.887,0,0,0,1.1-.452q.3-.149,2.45-5.714.851-2.254,1.651-4.21a9.86,9.86,0,0,0,.4-1.053,9.722,9.722,0,0,1,.4-1.053q.85-2.055,2.4-6.216l.753-2.1.347-.9q.3-.75.6-.75.15,0,.65,1.4,1.5,3.649,7.749,19.3.6,1.551,1.15,1.65a15.162,15.162,0,0,0,1.6.149C266.158,470.7,266.475,470.851,266.475,471.118Zm-10.152-7.85-3.215-8.544q-1.216,3-3.341,8.544Z"/>
      <path
        d="M291.524,464.468q0,.25-.9.3h-1.6c-.167.033-.292.184-.375.45a7.814,7.814,0,0,0-.125,1.8v2a11.657,11.657,0,0,1-7.6,2.7,12.107,12.107,0,0,1-8.75-3.118,10.98,10.98,0,0,1-3.25-8.308,12.071,12.071,0,0,1,3.175-8.707,11.06,11.06,0,0,1,8.375-3.317,12.161,12.161,0,0,1,5.8,1.7.9.9,0,0,0,.45.15q.4,0,.55-.65.3-.9.7-.9a.354.354,0,0,1,.4.4c0-.066-.035.217-.1.85q-.15,1.451-.149,5.75,0,1.15-.6,1.15-.45,0-.45-.6a7.854,7.854,0,0,0-1.824-5.175,5.735,5.735,0,0,0-4.476-1.925,5.918,5.918,0,0,0-5.25,2.993,15.17,15.17,0,0,0-1.9,8.181,14.071,14.071,0,0,0,1.924,7.883,5.978,5.978,0,0,0,5.225,2.893q3,0,3.7-1.886a6.266,6.266,0,0,0,.25-2.083,4.483,4.483,0,0,0-.224-2.007,4.014,4.014,0,0,0-1.875-.224h-.8q-.4,0-.4-.328,0-.421,1.2-.422h8.049C291.241,464.018,291.524,464.167,291.524,464.468Z"/>
      <path
        d="M316.374,448.968c0,.234-.368.35-1.1.35h-1.25c-.3,0-.476.067-.525.2a6.329,6.329,0,0,0-.076,1.355v18.433q0,1.809-.049,2.11c-.034.2-.184.3-.451.3q-.551,0-3.554-4.2-.35-.55-1.094-1.5-.1-.15-.547-.752-2.5-3.318-9.055-12.468v15.857q0,1.863.526,1.963a12.068,12.068,0,0,0,1.925.1h.2c.4,0,.6.11.6.326q0,.374-1.1.373-.2,0-1.651-.1-.75-.049-1.349-.05-.5,0-1,.05a19.863,19.863,0,0,1-2.05.1c-.534,0-.8-.124-.8-.373,0-.216.317-.326.949-.326h.451l.65-.051q1.2-.1,1.25-.453a11.036,11.036,0,0,0,.05-1.461V454.907q0-3.776-.45-4.533a2.512,2.512,0,0,0-2.35-1.006q-1.251,0-1.25-.422,0-.329.649-.328h6.351l11.8,16.247v-13.9a5.372,5.372,0,0,0-.1-1.45q-.1-.2-.8-.2h-1.349q-.951,0-.95-.373c0-.156.158-.249.475-.281s1.442-.046,3.375-.046q2.748,0,3.2.044C316.224,448.691,316.374,448.792,316.374,448.968Z"/>
      <path
        d="M343.374,460.143a11.571,11.571,0,0,1-3.15,8.207,10.143,10.143,0,0,1-7.7,3.368,10.957,10.957,0,0,1-8.175-3.418,12.435,12.435,0,0,1-.15-16.764,10.838,10.838,0,0,1,8.125-3.268,10.317,10.317,0,0,1,7.875,3.418A11.958,11.958,0,0,1,343.374,460.143Zm-4.7.149q0-5.787-2.349-9.128a4.79,4.79,0,0,0-4.151-2.146q-3.649,0-5.3,3.99a18.754,18.754,0,0,0-1.15,7.085q0,5.139,1.8,8.031a5.6,5.6,0,0,0,5,2.894Q338.674,471.018,338.673,460.292Z"/>
      <path
        d="M364.323,464.948a6.018,6.018,0,0,1-2.4,4.779,8.786,8.786,0,0,1-5.8,1.991,10.491,10.491,0,0,1-5.25-1.554,1.756,1.756,0,0,0-.4-.1c-.2,0-.317.158-.35.471a5.051,5.051,0,0,1-.15.826.464.464,0,0,1-.5.353.442.442,0,0,1-.5-.5c0-.066.032-.566.1-1.5s.1-1.733.1-2.4v-2.55q0-.95.5-.95t.75,1.55q.949,5.5,5.9,5.5,4.2,0,4.2-4.181a4.377,4.377,0,0,0-1-2.987,13.334,13.334,0,0,0-3.9-2.589,20.051,20.051,0,0,1-4.85-2.987,5.047,5.047,0,0,1-1.351-3.585,5.744,5.744,0,0,1,2-4.5,7.347,7.347,0,0,1,5.051-1.767,8.654,8.654,0,0,1,4.05,1.149.846.846,0,0,0,.4.151c.234,0,.383-.241.451-.725s.266-.725.6-.725a.443.443,0,0,1,.5.5,3,3,0,0,1-.051.4,17.276,17.276,0,0,0-.1,2.05q0,.75.15,2.7a1.93,1.93,0,0,1,.05.45c0,.4-.134.6-.4.6q-.45,0-.65-.893a6.515,6.515,0,0,0-1.825-3.493,4.519,4.519,0,0,0-3.226-1.314q-3.6,0-3.6,3.833a4.1,4.1,0,0,0,.95,2.788,4.144,4.144,0,0,0,1.1.945q.6.349,3.5,1.742a15.866,15.866,0,0,1,4.6,3.062A4.948,4.948,0,0,1,364.323,464.948Z"/>
      <path
        d="M378.772,471.068c0,.2-.149.3-.449.3h-8.4c-.567,0-.849-.087-.849-.26,0-.232.366-.361,1.1-.39q1.5-.1,1.576-.352a15.318,15.318,0,0,0,.075-2.166V451.987a13.362,13.362,0,0,0-.1-2.292q-.1-.327-.75-.377h-1.5c-.3,0-.45-.116-.45-.35s.217-.35.65-.35h8.25q.8,0,.8.4,0,.3-1.7.35-.7,0-.85.225a3.487,3.487,0,0,0-.15,1.375v18.85a.623.623,0,0,0,.375.65,7.68,7.68,0,0,0,1.775.25C378.573,470.751,378.772,470.868,378.772,471.068Z"/>
      <path
        d="M405.822,471.118q0,.3-1,.3h-9.851c-.6,0-.9-.131-.9-.4s.6-.413,1.8-.446q2.148-.051,2.149-.5a6.823,6.823,0,0,0-.3-.945q-.1-.394-1.149-3.327l-.6-1.688h-7.149a32.619,32.619,0,0,0-2.051,5.95q0,.45.6.5l.649.05h.75l.45.15c.4,0,.6.1.6.3q0,.346-1.051.346-.15,0-1.774-.074t-2.875-.075h-.451l-.45.075-.55.074h-.1c-.533,0-.8-.1-.8-.3,0-.234.218-.368.65-.4q.9-.05,1.2-.1a1.886,1.886,0,0,0,1.1-.452q.3-.149,2.45-5.714.851-2.254,1.651-4.21a9.86,9.86,0,0,0,.4-1.053,9.78,9.78,0,0,1,.4-1.053q.849-2.055,2.4-6.216l.753-2.1.347-.9q.3-.75.6-.75.15,0,.65,1.4,1.5,3.649,7.749,19.3.6,1.551,1.15,1.65a15.162,15.162,0,0,0,1.6.149C405.5,470.7,405.822,470.851,405.822,471.118Zm-10.153-7.85-3.214-8.544q-1.216,3-3.342,8.544Z"/>
    </g>
  </g>
</svg>
