<!DOCTYPE svg PUBLIC "-//W3C//DTD SVG 20010904//EN" "http://www.w3.org/TR/2001/REC-SVG-20010904/DTD/svg10.dtd">
<svg xmlns="http://www.w3.org/2000/svg" viewBox="0 0 1000 300">
  <defs>
    <style>
      svg {
        --dur: 16s;
      }
      #bg rect {
        fill: #0d0d0d;
        animation: bg var(--dur) linear forwards infinite;
      }
      @keyframes bg {
        0%, 25%, 90%, 100% {
          fill: #0d0d0d;
        }
        40%, 80% {
          fill: #b3b3b3;
        }
      }
      #footprint path {
        fill: #b3b3b3;
        opacity: 0;
        animation: footprint var(--dur) step-start forwards infinite;
      }
      #left1 path {
        animation-name: footprint_left1;
      }
      #right1 path {
        animation-name: footprint_right1;
      }
      #left2 path {
        animation-name: footprint_left2;
      }
      #right2 path {
        animation-name: footprint_right2;
      }
      #left3 path {
        animation-name: footprint_left3;
      }
      #right3 path {
        animation-name: footprint_right3;
      }
      #left4 path {
        animation-name: footprint_left4;
      }
      @keyframes footprint_left1 {
        0%, 100% {
          opacity: 0;
        }
        3%, 60% {
          opacity: 1;
        }
      }
      @keyframes footprint_right1 {
        0%, 3%, 100% {
          opacity: 0;
        }
        6%, 60% {
          opacity: 1;
        }
      }
      @keyframes footprint_left2 {
        0%, 6%, 100% {
          opacity: 0;
        }
        9%, 60% {
          opacity: 1;
        }
      }
      @keyframes footprint_right2 {
        0%, 9%, 100% {
          opacity: 0;
        }
        12%, 60% {
          opacity: 1;
        }
      }
      @keyframes footprint_left3 {
        0%, 12%, 100% {
          opacity: 0;
        }
        15%, 60% {
          opacity: 1;
        }
      }
      @keyframes footprint_right3 {
        0%, 15%, 100% {
          opacity: 0;
        }
        18%, 60% {
          opacity: 1;
        }
      }
      @keyframes footprint_left4 {
        0%, 18%, 100% {
          opacity: 0;
        }
        21%, 60% {
          opacity: 1;
        }
      }
      #logo path {
        fill: none;
        stroke: #0d0d0d;
        stroke-miterlimit: 10;
        stroke-width: 3px;
      }
      #text path {
        fill: #0d0d0d;
      }
    </style>
  </defs>
  <g id="blacklayer">
    <g id="bg">
      <rect width="1000" height="300"/>
    </g>
  </g>
  <g id="footprint">
    <g id="left1">
      <path d="M54.293,87.293c-30.686,0-35.23,16.69-33.975,22.538,1.217,5.675,9.243,17.49,37.123,7.746Q55.868,102.435,54.293,87.293Z"/>
      <path d="M67.085,84.176c62.55-16.4,69.45,14.319,68.954,21.3-.214,2.994-1.8,33.331-65.256,11.377Q68.934,100.513,67.085,84.176Z"/>
    </g>
    <g id="right1">
      <path d="M197.619,212.707c-30.687,0-35.23-16.69-33.975-22.538,1.217-5.675,9.243-17.49,37.123-7.746Q199.193,197.566,197.619,212.707Z"/>
      <path d="M210.411,215.824c62.55,16.4,69.45-14.319,68.953-21.3-.213-2.994-1.8-33.331-65.255-11.377Q212.26,199.487,210.411,215.824Z"/>
    </g>
    <g id="left2">
      <path d="M340.945,87.293c-30.687,0-35.23,16.69-33.975,22.538,1.217,5.675,9.243,17.49,37.123,7.746Q342.52,102.435,340.945,87.293Z"/>
      <path d="M353.736,84.176c62.551-16.4,69.451,14.319,68.954,21.3-.213,2.994-1.8,33.331-65.256,11.377Q355.586,100.513,353.736,84.176Z"/>
    </g>
    <g id="right2">
      <path d="M484.27,212.707c-30.686,0-35.229-16.69-33.975-22.538,1.218-5.675,9.244-17.49,37.124-7.746Q485.846,197.566,484.27,212.707Z"/>
      <path d="M497.062,215.824c62.551,16.4,69.451-14.319,68.954-21.3-.213-2.994-1.8-33.331-65.256-11.377Q498.912,199.487,497.062,215.824Z"/>
    </g>
    <g id="left3">
      <path d="M627.6,87.293c-30.686,0-35.229,16.69-33.975,22.538,1.218,5.675,9.244,17.49,37.124,7.746Q629.17,102.435,627.6,87.293Z"/>
      <path d="M640.388,84.176c62.55-16.4,69.451,14.319,68.954,21.3-.213,2.994-1.8,33.331-65.256,11.377Q642.238,100.513,640.388,84.176Z"/>
    </g>
    <g id="right3">
      <path d="M770.922,212.707c-30.686,0-35.229-16.69-33.975-22.538,1.218-5.675,9.244-17.49,37.124-7.746Q772.5,197.566,770.922,212.707Z"/>
      <path d="M783.714,215.824c62.55,16.4,69.451-14.319,68.954-21.3-.213-2.994-1.8-33.331-65.256-11.377Q785.563,199.487,783.714,215.824Z"/>
    </g>
    <g id="left4">
      <path d="M914.248,87.293c-30.686,0-35.229,16.69-33.975,22.538,1.217,5.675,9.244,17.49,37.124,7.746Q915.822,102.435,914.248,87.293Z"/>
      <path d="M927.04,84.176c62.55-16.4,69.451,14.319,68.954,21.3-.213,2.994-1.8,33.331-65.256,11.377Q928.889,100.513,927.04,84.176Z"/>
    </g>
  </g>
  <g id="logo">
    <path
      id="outer"
      class="cls-3"
      d="M151.906,204.42,141.023,208.5l-10.318-17.87-10.317-17.871,8.972-7.387a66.35,66.35,0,0,1,42.67-73.9L173.94,80h41.27l1.911,11.464c3.339.6,22.873,9.649,35.65,30.715,13.517,22.286,8.078,40.256,7.019,43.191l8.973,7.386-10.317,17.871L248.128,208.5l-10.883-4.077c-4.229,3.4-18.117,16.605-42.67,15.516C173.722,219.012,156.593,208.206,151.906,204.42Z"/>
  </g>
  <g id="text">
    <path
      class="cls-1"
      d="M413.4,97.187a6.843,6.843,0,0,1,1.516,1q1.2.919,2.514,2.076t2.475,2.234q1.155,1.078,1.556,1.477l.16.4-.16.559a11.659,11.659,0,0,1-2.514.24q-2.115.079-4.63.079t-4.828-.039q-2.316-.041-3.114-.04a1.917,1.917,0,0,0-1.276,1.276q0,5.268.279,10.417t.279,10.416a.7.7,0,0,0,.8.8h2.635l.558-.239q.4-.479,1.2-1.6t1.637-2.314q.837-1.2,1.6-2.116t1.158-.918a43.875,43.875,0,0,1,4.829,3.672q2.274,2,4.589,3.911l.159.4-.239.24a10.815,10.815,0,0,1-1.357.08h-1.357q-14.127,0-28.055.239t-28.057.24q-.639,0-2.834.04t-4.589.039q-2.394,0-4.35-.039a7.557,7.557,0,0,1-2.195-.2.564.564,0,0,1-.4-.559.255.255,0,0,1,.159-.239.711.711,0,0,1,.32-.08h16.283a.706.706,0,0,0,.8-.8V84.974a1.623,1.623,0,0,1,.12-.558.441.441,0,0,1,.439-.32q.557,0,2.155.12t3.352.319q1.755.2,3.313.4t1.955.28c.531.159.8.346.8.559a1.007,1.007,0,0,1-.359.678l-.758.758a1.1,1.1,0,0,0-.4.719v39.909a.7.7,0,0,0,.8.8h13.33a.706.706,0,0,0,.8-.8V84.815c0-.531.239-.8.718-.8a20.178,20.178,0,0,1,2.834.2q1.4.2,2.833.359t2.874.24a12.325,12.325,0,0,1,2.793.479c.16.054.319.107.479.159a.37.37,0,0,1,.24.4q0,.48-.8.759c-.532.187-.8.492-.8.918v16.043q0,.559.479.6c.319.027.611.04.878.04a2.579,2.579,0,0,0,1.756-.839,11.977,11.977,0,0,0,1.636-1.955q.759-1.118,1.4-2.235a17.524,17.524,0,0,1,1.118-1.756Zm-40.229,35.2q.4.162,2.036,1.118t3.512,2.115q1.874,1.158,3.472,2.195t1.915,1.277a.881.881,0,0,1,.32.559.322.322,0,0,1-.16.319,1.283,1.283,0,0,0-.319.239q-1.758,1.04-3.472,2.036a34.043,34.043,0,0,0-3.313,2.195q-2.634,1.838-5.387,4.031a62.287,62.287,0,0,1-5.748,4.071,36.636,36.636,0,0,1-6.185,3.113,17.991,17.991,0,0,1-6.545,1.237,2.569,2.569,0,0,1-.4-.04.406.406,0,0,1-.32-.2c0-.054.013-.08.04-.08s.04-.027.04-.079a35.18,35.18,0,0,1,2.634-3.113l2.794-2.954q2.553-2.712,5.148-5.387a70.738,70.738,0,0,0,4.909-5.628,56,56,0,0,0,4.789-6.864Zm-19-27.616c.052,0,.385-.013,1-.04s1.383-.04,2.315-.04,1.942-.013,3.033-.04,2.115-.027,3.073,0,1.769.04,2.434.04a4.312,4.312,0,0,1,1.158.08l-.16.239a4.488,4.488,0,0,1-1.117.12q-.959.04-2.315.08t-2.913.039q-1.557,0-2.913-.039t-2.316-.08a4.48,4.48,0,0,1-1.117-.12Zm27.138,0a8.709,8.709,0,0,1,1.8-.12q1.716-.041,3.791-.04t3.871.04a11.447,11.447,0,0,1,1.956.12l-.16.239a6.016,6.016,0,0,1-1.915.2q-1.677.041-3.632.039t-3.632-.039a6.025,6.025,0,0,1-1.916-.2Zm13.728,30.969.32-.32a33.968,33.968,0,0,1,4.869.4,38.967,38.967,0,0,1,5.507,1.238,40.024,40.024,0,0,1,5.508,2.115,22.6,22.6,0,0,1,4.789,2.993,14.607,14.607,0,0,1,3.352,3.911,9.6,9.6,0,0,1,1.277,4.909,8.714,8.714,0,0,1-.479,3.232,3.646,3.646,0,0,1-1.436,1.757,5.609,5.609,0,0,1-2.355.758,28.11,28.11,0,0,1-3.153.16,2.373,2.373,0,0,1-1.756-.639,4.486,4.486,0,0,1-.918-1.117c-.293-.479-.586-.986-.878-1.517l-.878-1.6a13.773,13.773,0,0,0-.838-1.357,55.55,55.55,0,0,0-5.946-7.5q-3.314-3.512-6.745-6.865Z"/>
    <path
      class="cls-1"
      d="M535.278,148.27a19.659,19.659,0,0,0-7.3,1.237q-3.554,1.317-7.144,2.954t-7.264,2.993a21.5,21.5,0,0,1-7.5,1.357,2.257,2.257,0,0,1-.48-.08.378.378,0,0,1-.319-.4q0-.321,1.238-1.357t3.112-2.434q1.875-1.4,4.111-2.994T518,146.434q2.034-1.515,3.591-2.793a9.423,9.423,0,0,0,2.035-2.075,1.952,1.952,0,0,0,.32-1.517q-.16-.8-1.2-.8H504.069a1.381,1.381,0,0,1-.439-.6c-.134-.291.013-.439.439-.439h18.917a.7.7,0,0,0,.8-.8V117.7a.7.7,0,0,1,.8-.8,31.146,31.146,0,0,1,4.151.279q2.075.281,4.151.519c.105,0,.331.014.678.04s.705.066,1.077.118a8.644,8.644,0,0,1,1,.2c.292.08.439.2.439.354a1.483,1.483,0,0,1-.279.87,8.346,8.346,0,0,1-.639.789,5.34,5.34,0,0,0-.639.868,2.126,2.126,0,0,0-.279,1.1,10.991,10.991,0,0,0,.16,1.579q.159,1.025.958,1.025c.319,0,.838-.012,1.556-.04s1.463-.04,2.236-.04,1.476.014,2.114.04a2.926,2.926,0,0,1,1.2.2c-.053.213-.278.373-.678.478a6.629,6.629,0,0,1-1.4.2q-.8.041-1.516.04h-.958a9.54,9.54,0,0,1-1.078-.08,7.514,7.514,0,0,0-1.317-.04,2.512,2.512,0,0,0-1.117.32.979.979,0,0,0-.479.918v10.775a.705.705,0,0,0,.8.8h9.019a.7.7,0,0,0,.8-.8V117.7a.7.7,0,0,1,.8-.8,39.42,39.42,0,0,1,5.029.319,39.211,39.211,0,0,0,5.028.319l.56-.245.079-.082.239-.573c-.053-.382-.107-.872-.159-1.472s-.346-.9-.878-.9H523.7q-.879.561-2.075,1.278a27.564,27.564,0,0,1-2.474,1.317,20.164,20.164,0,0,1-2.555,1,7.8,7.8,0,0,1-2.314.4,2.468,2.468,0,0,1-1.118-.279.95.95,0,0,1-.559-.918q0-8.061-.279-16t-.279-16q0-.719.8-.718a7.014,7.014,0,0,1,2.474.479,19.483,19.483,0,0,1,2.515,1.157q1.236.68,2.474,1.317a9.245,9.245,0,0,0,2.434.878,19.574,19.574,0,0,0,3.792.439q1.955.041,3.791.12,3.432.081,6.865.04t6.864-.04q.717,0,2.474.04t3.672.04q1.914,0,3.511-.12a3.54,3.54,0,0,0,2-.519l3.991-3.991a2.457,2.457,0,0,1,.279-.119,2.311,2.311,0,0,0,.279-.12q.4-.159,1.6.6a30.237,30.237,0,0,1,2.554,1.836q1.356,1.079,2.555,2.115t1.6,1.357l.24.479a1.292,1.292,0,0,1-.359.6c-.187.187-.4.387-.639.6a5.072,5.072,0,0,0-.638.679,1.212,1.212,0,0,0-.279.758V113.15a1.651,1.651,0,0,1-.918,1.437,10.749,10.749,0,0,1-2.275,1q-1.357.44-2.954.878a14.519,14.519,0,0,0-2.953,1.157,7.983,7.983,0,0,0-2.275,1.756,3.944,3.944,0,0,0-.918,2.714,3.216,3.216,0,0,0,.4,1.6,1.5,1.5,0,0,0,1.436.719,2.886,2.886,0,0,0,2.275-1.065,15.828,15.828,0,0,0,1.676-2.368q.759-1.3,1.437-2.407a1.939,1.939,0,0,1,1.636-1.105,5.278,5.278,0,0,1,1.836.948q1.436.947,2.953,2.17t2.714,2.367q1.2,1.146,1.2,1.46a1.1,1.1,0,0,1-1.038,1.037H555.471a.706.706,0,0,0-.8.8v11.415a.432.432,0,0,0,.36.478,3.07,3.07,0,0,0,.678.08c.16,0,.491-.026,1-.079s1.037-.118,1.6-.2,1.077-.158,1.557-.238a4.2,4.2,0,0,0,.877-.2,4.607,4.607,0,0,0,1.278-1.262q.8-1.025,1.6-2.21t1.517-2.092c.478-.6.878-.908,1.2-.908a5.238,5.238,0,0,1,2.076.949,34.677,34.677,0,0,1,3.113,2.212,26.5,26.5,0,0,1,2.793,2.529q1.2,1.264,1.2,1.817a.384.384,0,0,1-.28.356,1.2,1.2,0,0,1-.438.118h-48.37a.932.932,0,0,0-1.037.8,2.165,2.165,0,0,0,.159,1.437q.08.081,1.437.958t3.073,1.956q1.716,1.077,3.272,2.075t1.956,1.237l.239.319v.24ZM521.43,125.322a1.329,1.329,0,0,1-.519.12H509.5c-.427,0-.639-.16-.639-.479s.186-.531.559-.638c.052,0,.4.013,1.038.04s1.423.053,2.354.079,1.916.068,2.953.12,2.008.107,2.914.16,1.968.133,3.193.239A.989.989,0,0,1,521.43,125.322Zm.758-13.449a.7.7,0,0,0,.8.8H533.6a.706.706,0,0,0,.8-.8V90.562a.706.706,0,0,0-.8-.8H522.986a.7.7,0,0,0-.8.8Zm1.915-10.615-.159-.24a8.017,8.017,0,0,1,1.437-.12q1.2-.039,2.634-.04t2.753.04c.878.028,1.477.04,1.8.04l.24.24-.24.319h-7.9Zm19.875,10.615a.7.7,0,0,0,.8.8h11.175a.706.706,0,0,0,.8-.8V90.562a.706.706,0,0,0-.8-.8H544.776a.7.7,0,0,0-.8.8Zm1.915-10.615-.159-.24a6.51,6.51,0,0,1,1.516-.12q1.437-.039,3.113-.04t3.113.04a6.541,6.541,0,0,1,1.517.12.387.387,0,0,1-.28.359,1.215,1.215,0,0,1-.439.12h-7.822Zm23.228,56.111a5.885,5.885,0,0,1-1.837-.758q-1.437-.759-3.352-1.916t-4.15-2.553q-2.236-1.4-4.191-2.674t-3.472-2.315q-1.517-1.037-2.075-1.517a2.547,2.547,0,0,1-.479-.359,5.357,5.357,0,0,1-.559-.559.8.8,0,0,1-.239-.479c0-.132.212-.2.638-.2q1.356,0,3.752.159t5.227.559q2.833.4,5.788,1.038a31.024,31.024,0,0,1,5.347,1.636,13.232,13.232,0,0,1,3.911,2.4,4.276,4.276,0,0,1,1.517,3.232,3.8,3.8,0,0,1-.519,2.036,4.157,4.157,0,0,1-1.356,1.357,5.535,5.535,0,0,1-1.877.718A11.045,11.045,0,0,1,569.121,157.369Z"/>
    <path
      class="cls-1"
      d="M665.7,138.133a3.323,3.323,0,0,0,1.038-1.876,28.788,28.788,0,0,0,.838-3.751q.36-2.194.6-4.789t.4-4.949q.159-2.353.24-4.23c.051-1.25.079-2.167.079-2.754q0-.718-.8-.718a2.43,2.43,0,0,0-1.915.718q-.639.718-1.276,1.557a7.4,7.4,0,0,1-1.677,1.556,5.493,5.493,0,0,1-3.113.719h-1.237a12.685,12.685,0,0,1-1.717-.12,6.3,6.3,0,0,1-1.556-.4c-.453-.186-.678-.439-.678-.759a.9.9,0,0,1,.079-.4q1.836-3.831,3.433-7.742t3.193-7.982q.717-1.916,1.476-3.831t1.637-3.751a5.043,5.043,0,0,1,.438-.838,5.46,5.46,0,0,0,.559-1.278,3.411,3.411,0,0,0,.16-1.2.521.521,0,0,0-.6-.519q-.4,0-1.955.04t-3.233.04q-1.677,0-3.113-.04a3.984,3.984,0,0,1-1.6-.2q0-.639.8-.639h8.7a1.707,1.707,0,0,0,1.116-.718q.639-.719,1.317-1.637t1.318-1.636q.637-.719,1.037-.718a4.631,4.631,0,0,1,1.4.878q1.155.879,2.514,2.035t2.594,2.2q1.236,1.038,1.717,1.357l.159.4-.239.319c-.587.267-1.131.546-1.637.838a4.129,4.129,0,0,0-1.316,1.238,9.366,9.366,0,0,0-1.038,2.075,15.7,15.7,0,0,1-.958,2.155q-.719,1.437-1.557,3.033t-1.556,3.273a27.988,27.988,0,0,0-1.2,3.352,12.124,12.124,0,0,0-.48,3.352c0,.427.24.639.72.639a1.88,1.88,0,0,0,1.236-.678,17.814,17.814,0,0,0,1.317-1.477q.639-.8,1.158-1.477c.345-.451.624-.678.838-.678a3.528,3.528,0,0,1,1.517.918q1.116.918,2.394,2.115t2.315,2.314a5.907,5.907,0,0,1,1.2,1.6,2.361,2.361,0,0,1-.719,1.237,4.077,4.077,0,0,0-.878,1.157,11.652,11.652,0,0,0-.718,2.355q-.24,1.239-.558,2.355-.88,3.353-1.677,6.744a40.5,40.5,0,0,1-2.155,6.585,21.276,21.276,0,0,1-1.556,3.113,11.269,11.269,0,0,0-1.318,3.113,3.4,3.4,0,0,0,1.637,1.117q1.317.561,3.232,1.158t4.111,1.118q2.194.519,4.231.957t3.631.678a17.628,17.628,0,0,0,2.315.24h35.36a3.16,3.16,0,0,1,.678.08.434.434,0,0,1,.36.479.835.835,0,0,1-.12.439,1.869,1.869,0,0,1-.28.359,14.58,14.58,0,0,0-1.876,3.273q-.679,1.676-1.557,3.512a.831.831,0,0,1-.8.638q-5.506,0-11.014.04t-11.015.04q-5.028,0-10.058-.359a42.512,42.512,0,0,1-9.817-1.876,14.879,14.879,0,0,1-2.913-1.437q-1.876-1.118-3.871-2.314t-3.632-2.156a5.98,5.98,0,0,0-2.2-.958,3.629,3.629,0,0,0-.718.679q-.641.679-1.717,1.676t-2.354,2.195q-1.278,1.2-2.515,2.195A24.614,24.614,0,0,1,658,155.174a3.577,3.577,0,0,1-1.715.679.282.282,0,0,1-.319-.319,5.294,5.294,0,0,1,1.236-1.916q1.238-1.518,2.675-3.592a44.857,44.857,0,0,0,2.674-4.39,9.111,9.111,0,0,0,1.237-4.23,7.781,7.781,0,0,0-.559-2.913,28.7,28.7,0,0,0-1.277-2.754q-.718-1.357-1.277-2.674a6.776,6.776,0,0,1-.559-2.674c0-.372.106-.559.319-.559.16,0,.451.373.878,1.118s.878,1.6,1.357,2.554.958,1.889,1.437,2.793a6.315,6.315,0,0,0,1.2,1.757Zm47.252-47.571q.24-.24.958-1t1.477-1.557a17.772,17.772,0,0,1,1.476-1.4,2.3,2.3,0,0,1,.959-.6,5.4,5.4,0,0,1,1.516.958q1.276.957,2.634,2.115t2.475,2.2a8.89,8.89,0,0,1,1.117,1.117.871.871,0,0,1-.319.679c-.214.187-.439.373-.679.559a7.454,7.454,0,0,0-.679.6.92.92,0,0,0-.318.638v44.379c0,.478-.334.878-1,1.2a13.731,13.731,0,0,1-2.315.838,18.792,18.792,0,0,1-2.554.519,15.753,15.753,0,0,1-1.8.16q-1.357,0-1.556-.6a4.009,4.009,0,0,1-.2-1.277,4.958,4.958,0,0,0-.16-1.277q-.16-.6-1.436-.6-3.673,0-7.3.12t-7.3.2H696.71q-.839,0-1.717.04t-1.636.08a6.672,6.672,0,0,0-1.077.12,1.787,1.787,0,0,0-1.158,1.117,9.281,9.281,0,0,1-1.038,1.836,6.379,6.379,0,0,1-1.915,1.716,7.425,7.425,0,0,1-3.791.758.7.7,0,0,1-.8-.8q0-9.417-.2-18.837t-.36-18.837q-.08-2.952-.118-5.867t-.04-5.866c0-1.064-.029-2.1-.08-3.113a20.037,20.037,0,0,1,.08-3.113,1.288,1.288,0,0,1,.079-.4c.052-.16.132-.239.239-.239a5.539,5.539,0,0,1,2.076.558q1.275.559,2.673,1.277t2.635,1.278a5.115,5.115,0,0,0,1.875.558h19.955Zm-20.193,1.356a.706.706,0,0,0-.8.8V136.3a.706.706,0,0,0,.8.8h20.193a.706.706,0,0,0,.8-.8V92.717a.707.707,0,0,0-.8-.8Zm18.358,10.856a3.989,3.989,0,0,1-.479.838,1.44,1.44,0,0,0-.319.838v22.589a.928.928,0,0,1-.559.8,4.545,4.545,0,0,1-1.277.479,12.777,12.777,0,0,1-1.477.239c-.506.054-.865.08-1.078.08q-.717,0-.718-.6t-.04-1.316a2.427,2.427,0,0,0-.478-1.318q-.441-.6-1.956-.6-1.437,0-1.836.838a13.906,13.906,0,0,0-.719,1.876,5.548,5.548,0,0,1-1,1.875,3.466,3.466,0,0,1-2.754.838.7.7,0,0,1-.8-.8q0-7.423-.239-14.686t-.24-14.687q0-.719.8-.718a2.745,2.745,0,0,1,1.317.439q.759.439,1.636.918t1.8.918a4.306,4.306,0,0,0,1.875.439,2.181,2.181,0,0,0,1.317-.439,7.37,7.37,0,0,0,1.077-.958q.48-.519.879-.958c.265-.292.479-.439.638-.439a2.235,2.235,0,0,1,.918.479q.677.479,1.437,1.077t1.437,1.158A5.086,5.086,0,0,1,711.117,102.774Zm-10.536,20.194c.16.107.411.279.758.519a1.637,1.637,0,0,0,.838.359,6.327,6.327,0,0,0,.639-.04,5.08,5.08,0,0,0,.838-.16,2.826,2.826,0,0,0,.758-.319.55.55,0,0,0,.32-.439V103.572c0-.16-.227-.305-.679-.439a5.264,5.264,0,0,0-1.477-.2,3.843,3.843,0,0,0-1.477.28.953.953,0,0,0-.678.918q0,4.788.08,9.418T700.581,122.968Z"/>
    <path
      class="cls-1"
      d="M822.782,123.686a7.285,7.285,0,0,1,.639-2.594q.556-1.236,1.038-2.434.239-.48.918-2.395t1.4-4.07q.718-2.156,1.317-3.912a13.223,13.223,0,0,0,.6-2v-.718c0-.266-.2-.466-.6-.6a6.531,6.531,0,0,0-1.4-.279q-.8-.079-1.556-.08h-1a10.243,10.243,0,0,0-2.075.2,1.9,1.9,0,0,0-1.357,1.477,6.144,6.144,0,0,0-.159,2.035c.051.772.079,1.477.079,2.115q0,2.316-.119,4.51t-.28,4.51q-.24,4.39-.958,9.378a68.683,68.683,0,0,1-2.155,9.818,48.5,48.5,0,0,1-3.751,9.139,25.212,25.212,0,0,1-5.747,7.264,2.581,2.581,0,0,1-.319.239.786.786,0,0,1-.4.16c-.267-.054-.412-.174-.438-.359a4.2,4.2,0,0,1-.04-.6,28.193,28.193,0,0,1,.478-5.188q.48-2.553,1.118-5.109t1.237-5.108a37.689,37.689,0,0,0,.838-5.188,222.732,222.732,0,0,0,.918-24.145q-.2-12.012-.2-24.145,0-.719.8-.719a4.8,4.8,0,0,1,2.274.679q1.238.68,2.515,1.477t2.634,1.476a6.007,6.007,0,0,0,2.713.679h41.267a.541.541,0,0,0,.4-.16,9.86,9.86,0,0,0,1.316-1.476q.759-1,1.478-2.036t1.356-1.915A4.32,4.32,0,0,1,868.6,82.5a7.192,7.192,0,0,1,1.836,1.2q1.437,1.119,3.033,2.435t2.874,2.434q1.275,1.119,1.276,1.357c0,.16-.107.267-.319.32a2.189,2.189,0,0,1-.479.079q-5.028.4-9.977.439t-9.977.04q-8.942,0-17.68-.079t-17.679-.08a.706.706,0,0,0-.8.8v11.334a.705.705,0,0,0,.8.8h8.54a.705.705,0,0,0,.8-.8v-8.54a.641.641,0,0,1,.439-.6,2.914,2.914,0,0,1,1-.24c.371-.026.758-.04,1.157-.04h.838q.318,0,1.238.04a15.9,15.9,0,0,1,1.875.2,12.641,12.641,0,0,1,1.716.4q.757.24.758.718a1.6,1.6,0,0,1-.518,1.038,2.383,2.383,0,0,0-.519,1.676c0,.213.012.532.039.958a11.863,11.863,0,0,0,.16,1.317,3.931,3.931,0,0,0,.4,1.2c.185.347.411.519.678.519a.911.911,0,0,0,.758-.359,5.088,5.088,0,0,0,.519-.838,10.082,10.082,0,0,1,.519-.918,1.132,1.132,0,0,1,.838-.519,4.213,4.213,0,0,1,1.8,1.157,17.785,17.785,0,0,0,1.636,1.477,9.256,9.256,0,0,0,4.629,2,49.816,49.816,0,0,0,5.109.24,2.582,2.582,0,0,0,.638-.08.428.428,0,0,0,.32-.479V94.154a.635.635,0,0,1,.718-.719,31.122,31.122,0,0,1,4.15.28q2.076.28,4.151.678a.891.891,0,0,0,.4.08c.16,0,.239.107.239.319a.927.927,0,0,1-.518.8.985.985,0,0,0-.519.878v5.907l.239.479.559.239a2.67,2.67,0,0,0,1.676-1.077,14.814,14.814,0,0,0,1.278-1.916q.557-1,1.037-1.836t.958-.838a3.9,3.9,0,0,1,1.556.8,23.484,23.484,0,0,1,2.355,1.876q1.2,1.077,2.155,2.075t.958,1.4q0,.958-1.875,1a38.113,38.113,0,0,1-4.151-.16q-2.276-.2-4.151-.2t-1.875.958a4.311,4.311,0,0,0,1.875,3.352,27.52,27.52,0,0,0,4.231,2.793q2.352,1.278,4.429,2.435a5.28,5.28,0,0,1,2.475,2.2l-.16.479c-.267.319-.546.626-.838.918a7.9,7.9,0,0,0-.838,1q-.32.48-.879,1.477t-1.156,2q-.6,1-1.2,1.836t-1.077.918q-.24.081-.48-.359c-.158-.292-.267-.491-.318-.6q-.321-.639-1-2.435T869.8,117.46a31.5,31.5,0,0,0-1.636-3.392q-.838-1.476-1.477-1.476a2.288,2.288,0,0,0-1.038.239.894.894,0,0,0-.478.878v11.174q0,.641-.878,1.078a8.351,8.351,0,0,1-2.035.679q-1.16.239-2.275.359t-1.6.12c-.853,0-1.331-.16-1.438-.479a5.589,5.589,0,0,1-.159-1.6,18.757,18.757,0,0,1,.479-4.071,11.561,11.561,0,0,0,.24-3.991c-.055-.159-.134-.4-.24-.718s-.293-.479-.559-.479q-.24,0-1.556,1.277t-2.954,2.754q-1.636,1.477-3.272,2.754a4.91,4.91,0,0,1-2.434,1.277q-.4,0-.4-.319a8.739,8.739,0,0,1,1.158-4.031q1.155-2.194,2.554-4.55t2.554-4.749a10.771,10.771,0,0,0,1.158-4.709.706.706,0,0,0-.8-.8H840.9a1.846,1.846,0,0,0-1,.439q-.6.438-.6.838,0,.8,1.516,1.237t3.313,1.117a13.791,13.791,0,0,1,3.313,1.8,3.817,3.817,0,0,1,1.516,3.273,3.152,3.152,0,0,1-1.238,2.634,4.5,4.5,0,0,1-2.833.957,2.763,2.763,0,0,1-2.155-.718,3.9,3.9,0,0,1-.878-1.716,16.323,16.323,0,0,1-.359-2.155,4.64,4.64,0,0,0-.679-2.036,2.241,2.241,0,0,1-.24-.319.921.921,0,0,0-.318-.319,1.041,1.041,0,0,0-.8,0,.686.686,0,0,0-.4.718v13.889a1.517,1.517,0,0,1-.918,1.317,8.956,8.956,0,0,1-2.115.838,18.936,18.936,0,0,1-2.4.479,14.739,14.739,0,0,1-1.756.16q-.639,0-.8-1.2a14.675,14.675,0,0,1-.079-2.713q.078-1.516.2-2.954a9.614,9.614,0,0,0,.04-1.916,2.4,2.4,0,0,1-.16-.519.391.391,0,0,0-.4-.359q-.238,0-1.2.918t-2.195,2.076q-1.239,1.158-2.435,2.2a7.184,7.184,0,0,1-1.835,1.277Zm13.888,12.691V152.82a.706.706,0,0,0,.8.8h6.385a.706.706,0,0,0,.8-.8V129.353a.706.706,0,0,1,.8-.8q.556,0,2.154.04t3.313.159a19.383,19.383,0,0,1,3.073.44q1.356.32,1.357.8a1.224,1.224,0,0,1-.559,1.038,1.223,1.223,0,0,0-.558,1.037V152.82a.705.705,0,0,0,.8.8h9.339a2.733,2.733,0,0,0,1.876-.758,8.752,8.752,0,0,0,1.516-1.836q.678-1.078,1.277-2.155a10.036,10.036,0,0,1,1.237-1.8,1.228,1.228,0,0,1,.479-.16,5.027,5.027,0,0,1,1.637.918,34.7,34.7,0,0,1,2.793,2.2q1.476,1.276,2.754,2.435a20.232,20.232,0,0,1,1.675,1.636l-.158.4a.877.877,0,0,0-.28.08.959.959,0,0,1-.28.08H816.317a.4.4,0,0,1,0-.8H826.3a.706.706,0,0,0,.8-.8V133.9q0-.877.8-.878.56,0,2.156.04t3.312.239a27.823,27.823,0,0,1,3.074.519q1.356.319,1.356.8a1.061,1.061,0,0,1-.319.679,3.071,3.071,0,0,1-.559.518Zm19.476,3.273a3.782,3.782,0,0,1,1.636-.6,13.558,13.558,0,0,1,1.756-.12c.559,0,1.1-.012,1.637-.039a2.5,2.5,0,0,0,1.277-.36,5.116,5.116,0,0,0,1.157-1.277q.678-.957,1.4-2t1.4-1.876c.451-.559.838-.838,1.157-.838a4.1,4.1,0,0,1,1.317.878q1.077.879,2.355,1.956t2.394,2.075q1.118,1,1.437,1.317c0,.053.08.159.24.319s.239.267.239.319c0,.16-.108.267-.319.319a2.087,2.087,0,0,1-.479.08H856.386Z"/>
    <path
      class="cls-1"
      d="M374.163,206.455q-.24.808-.479,1.631t-.539,1.6c-.04.08-.07.134-.089.164s-.08.045-.18.045-.254,0-.464.015-.424.015-.643.015a5.858,5.858,0,0,1-.614-.03.931.931,0,0,1-.374-.089,3.038,3.038,0,0,1-.344-.884q-.255-.822-.554-1.84t-.554-1.931q-.255-.912-.344-1.182l-2.394-8.112q-.42-1.436-.853-2.858t-.854-2.859c-.04-.139-.075-.279-.1-.419s-.066-.279-.1-.419a1.046,1.046,0,0,1-.105-.209,1.082,1.082,0,0,0-.1-.21.588.588,0,0,0-.33-.18c-.16-.039-.334-.074-.524-.1l-.553-.09a1.447,1.447,0,0,1-.39-.1.32.32,0,0,1-.194-.269c-.01-.12.064-.18.225-.18h9.189c.159,0,.224.06.194.18a.461.461,0,0,1-.165.269,1.318,1.318,0,0,1-.419.12,7.079,7.079,0,0,1-.7.09l-.718.06c-.23.02-.395.04-.494.059a1.522,1.522,0,0,0-.24.045c-.02.011-.04.095-.059.255a3.446,3.446,0,0,0,.1.9q.135.689.329,1.5t.374,1.541q.18.733.27,1.032.508,2.007,1.063,3.981t1.092,3.981q.18.63.374,1.257c.13.419.244.838.345,1.257.059.221.109.434.149.644a2.35,2.35,0,0,0,.21.614.335.335,0,0,0,.119.12l.18.119a.764.764,0,0,1,.18.18A.489.489,0,0,1,374.163,206.455Zm4.191-17.63a1.335,1.335,0,0,0-.569-.134c-.3-.031-.614-.06-.943-.09s-.628-.07-.9-.12-.4-.145-.4-.284a.212.212,0,0,1,.24-.24h8.979q.238,0,.21.24-.06.3-.614.359c-.37.04-.763.07-1.182.09s-.789.05-1.108.089-.449.16-.389.36l3.771,13.23q.09.358.165.853t.165.987a8.913,8.913,0,0,0,.224.943,2.7,2.7,0,0,0,.315.718,1.74,1.74,0,0,1,.269.629q.118.448.18.689a16.769,16.769,0,0,0-.539,1.825c-.04.16-.075.325-.105.494a.649.649,0,0,1-.224.4.857.857,0,0,1-.33.03h-1.8a.294.294,0,0,1-.27-.149,6.347,6.347,0,0,1-.3-.839q-.24-.747-.569-1.871t-.719-2.439q-.389-1.317-.733-2.514t-.628-2.125q-.285-.927-.374-1.257c-.12-.4-.245-.794-.374-1.182s-.245-.783-.345-1.183c-.04-.139-.1-.429-.165-.868s-.149-.893-.239-1.362a9.909,9.909,0,0,0-.314-1.242q-.18-.539-.359-.539-.24,0-.36.3a2.2,2.2,0,0,0-.089.389,3.3,3.3,0,0,1-.09.419l-.449,1.915q-.569,2.365-1.272,4.655t-1.422,4.624q-.12.39-.359.18a.683.683,0,0,1-.24-.539c0-.02.035-.169.105-.449s.15-.594.24-.943.179-.678.269-.987.145-.5.165-.584q.538-2.005,1.137-3.966t1.137-3.966q.21-.779.374-1.6a7.639,7.639,0,0,1,.494-1.571c.02-.06.06-.154.12-.284a2.721,2.721,0,0,0,.15-.419c.04-.15.075-.285.105-.4a.344.344,0,0,0-.015-.27Zm9.608-.808a3.421,3.421,0,0,1,.554-.06q.463-.03,1.107-.03h1.407c.509,0,.992.006,1.452.015s.872.015,1.242.015h.763q.329,0,.24.269c-.041.18-.19.29-.45.33s-.549.075-.868.1a3.343,3.343,0,0,0-.927.225,1.185,1.185,0,0,0-.659.659,6.1,6.1,0,0,0-.254.733q-.1.375-.225.763-.33,1.049-.583,2.125t-.584,2.156l-1.167,4.04q-.241.779-.479,1.572t-.48,1.6q-.148.42-.254.838t-.254.838q-.15.42-.434.4t-.225-.434a1.589,1.589,0,0,1,.06-.194,1.557,1.557,0,0,0,.06-.195,6.354,6.354,0,0,0,.18-.868,5.959,5.959,0,0,1,.179-.868c.139-.6.285-1.2.434-1.811s.3-1.212.464-1.811q.508-1.886.973-3.741t1-3.742q.118-.388.239-.748a4.622,4.622,0,0,0,.18-.778,3.543,3.543,0,0,0,.03-.4q0-.165-.24-.285a1.176,1.176,0,0,0-.509-.089h-.7a3.568,3.568,0,0,1-.733-.075,1,1,0,0,1-.569-.314q-.12-.12.03-.21Z"/>
    <path
      class="cls-1"
      d="M408.076,210.077a3.007,3.007,0,0,1-.749-.389,4.307,4.307,0,0,1-.718-.629,4,4,0,0,1-.554-.763,1.635,1.635,0,0,1-.224-.793v-.6l.089-5.866a.33.33,0,0,0-.239-.33,1.06,1.06,0,0,0-.449-.03,2.892,2.892,0,0,0-.553.12q-.285.09-.554.18a2.148,2.148,0,0,0-.419.179,5.217,5.217,0,0,0-2.605,2.814,4.849,4.849,0,0,0-.374,1.481,3.626,3.626,0,0,0,.15,1.482,2.428,2.428,0,0,0,.763,1.137,2.269,2.269,0,0,0,1.5.449,1.993,1.993,0,0,0,.464-.1c.229-.07.454-.13.673-.18a1.493,1.493,0,0,1,.524-.045q.195.03.045.329a2.436,2.436,0,0,1-1.3,1.123,5.834,5.834,0,0,1-1.975.419,7.873,7.873,0,0,1-2.066-.18,3.891,3.891,0,0,1-1.6-.7,2.639,2.639,0,0,1-.928-1.287,5.167,5.167,0,0,1-.24-1.587,3.848,3.848,0,0,1,.659-2.26,5.976,5.976,0,0,1,1.676-1.6,9.53,9.53,0,0,1,2.2-1.047q1.182-.39,2.26-.629c.12-.02.279-.045.479-.075s.409-.064.628-.105.424-.079.614-.12a1.787,1.787,0,0,0,.4-.119.482.482,0,0,0,.314-.494c-.01-.229-.014-.434-.014-.614v-1.107c0-.4-.021-.8-.06-1.212a6.263,6.263,0,0,0-.225-1.167,3.228,3.228,0,0,0-.494-1,1.428,1.428,0,0,0-1.227-.629c-.119,0-.305,0-.554-.015s-.5-.015-.763-.015-.5.011-.719.03a1.414,1.414,0,0,0-.448.09c-.08.04-.13.185-.15.434s-.045.554-.075.913-.08.733-.149,1.122a4.359,4.359,0,0,1-.345,1.093,2.224,2.224,0,0,1-.673.838,1.8,1.8,0,0,1-1.122.329,1.68,1.68,0,0,1-1.183-.374,1.5,1.5,0,0,1-.479-.928,2.453,2.453,0,0,1,.135-1.152,2.93,2.93,0,0,1,.629-1.048,5.036,5.036,0,0,1,1.3-.988,6.952,6.952,0,0,1,1.572-.6,10.839,10.839,0,0,1,1.691-.285c.569-.049,1.112-.074,1.632-.074q.418,0,.837.015c.28.01.559.014.838.014a3.785,3.785,0,0,1,1.692.39,4.552,4.552,0,0,1,1.377,1.032,4.825,4.825,0,0,1,.913,1.482,4.643,4.643,0,0,1,.329,1.706V208.1a.466.466,0,0,0,.134.344,1.453,1.453,0,0,0,.285.225,1.5,1.5,0,0,0,.464.225.882.882,0,0,0,.359.014,1.26,1.26,0,0,0,.344-.119,3.472,3.472,0,0,1,.449-.18,1.147,1.147,0,0,1,.344-.09q.105,0,.045.33a.667.667,0,0,1-.119.269,1.958,1.958,0,0,1-.18.21,2.128,2.128,0,0,1-.883.523,5.592,5.592,0,0,1-1.093.225,8.824,8.824,0,0,1-1.137.045c-.379-.01-.729-.015-1.048-.015A.176.176,0,0,1,408.076,210.077Z"/>
    <path
      class="cls-1"
      d="M420.947,209a2.085,2.085,0,0,0,.4.105l.509.09a3.22,3.22,0,0,1,.433.1q.18.061.18.18,0,.21-.18.21h-7.572a.212.212,0,0,1-.24-.24c0-.159.1-.244.284-.254a4.294,4.294,0,0,1,.614.015,3.145,3.145,0,0,0,.614,0,.276.276,0,0,0,.284-.3v-12.99a.265.265,0,0,0-.3-.3h-1.616q-.12,0-.12-.075v-.135a.32.32,0,0,1,.12-.149.276.276,0,0,1,.179-.15l5.3-1.587a.542.542,0,0,1,.629.15,1.56,1.56,0,0,1,.284.689,3.554,3.554,0,0,1,.045.867c-.02.3-.04.529-.06.689a.757.757,0,0,0,.03.359,1.893,1.893,0,0,0,.12.33V208.88Zm.808-12.721c-.16.04-.265.026-.315-.044s-.035-.175.045-.315l.3-.3.329-.33a6.822,6.822,0,0,1,1.975-1.361,6.085,6.085,0,0,1,2.365-.405,5.678,5.678,0,0,1,1.721.27,4.834,4.834,0,0,1,1.512.778,3.95,3.95,0,0,1,1.062,1.257,3.542,3.542,0,0,1,.4,1.706v11.374c0,.141.09.22.27.24a5.415,5.415,0,0,0,.6.03,4.232,4.232,0,0,1,.629.045.479.479,0,0,1,.389.224q.06.15-.03.195a.463.463,0,0,1-.209.045h-7.693a.212.212,0,0,1-.24-.24c0-.159.095-.244.285-.254a4.283,4.283,0,0,1,.613.015,3.145,3.145,0,0,0,.614,0,.277.277,0,0,0,.285-.3V197.535a2.3,2.3,0,0,0-.33-1.317,1.853,1.853,0,0,0-.853-.688,2.624,2.624,0,0,0-1.167-.165,5.532,5.532,0,0,0-1.3.255,3.543,3.543,0,0,0-.374.149,2.691,2.691,0,0,0-.374.21l-.36.179A.643.643,0,0,1,421.755,196.278Z"/>
    <path
      class="cls-1"
      d="M451.132,185.578a.321.321,0,0,1,.165.284v23.047a.274.274,0,0,0,.284.315,4.3,4.3,0,0,0,.614-.015,4.3,4.3,0,0,1,.614-.015.274.274,0,0,1,.284.314.191.191,0,0,1-.18.209,4.485,4.485,0,0,1-.942.135q-.825.075-1.8.135t-1.8.105a6.61,6.61,0,0,1-.973.015.554.554,0,0,1-.4-.21.99.99,0,0,1-.18-.419,2.67,2.67,0,0,1-.045-.494v-.464a2.657,2.657,0,0,0-.03-.4,2.64,2.64,0,0,1-.029-.4V195.919a.461.461,0,0,0-.285-.419,2.872,2.872,0,0,0-.644-.239,4.466,4.466,0,0,0-.733-.12c-.25-.02-.434-.03-.554-.03a5.227,5.227,0,0,0-1.182.135,3.056,3.056,0,0,0-1.092.494,3.728,3.728,0,0,0-1.108,1.2,6.33,6.33,0,0,0-.643,1.541,9.516,9.516,0,0,0-.3,1.691q-.075.868-.074,1.647t.074,1.616a10.118,10.118,0,0,0,.285,1.646,6.616,6.616,0,0,0,.613,1.542,4.172,4.172,0,0,0,1.033,1.242,2.5,2.5,0,0,0,1.452.614,12.661,12.661,0,0,0,1.6-.015q.508-.06.464.149a1.432,1.432,0,0,1-.314.539,1.966,1.966,0,0,1-.3.24,6.634,6.634,0,0,1-.688.493,1.492,1.492,0,0,1-.808.225h-2.993a3.4,3.4,0,0,1-2.35-.868,7.023,7.023,0,0,1-1.6-2.125,10.989,10.989,0,0,1-.928-2.679,12.4,12.4,0,0,1-.3-2.529,10.932,10.932,0,0,1,.448-3.128,8.346,8.346,0,0,1,1.332-2.679,6.772,6.772,0,0,1,2.215-1.886,6.427,6.427,0,0,1,3.1-.718q.389,0,.749-.015a3.932,3.932,0,0,1,.748.044,2.454,2.454,0,0,1,1.182.479q.584.42,1.063.779c.06.04.129.089.209.149a1.619,1.619,0,0,0,.239.15.641.641,0,0,0,.434.075.36.36,0,0,0,.255-.314,2.092,2.092,0,0,0,.015-.465q-.015-.314-.03-.658c-.01-.229-.03-.459-.06-.688a4.616,4.616,0,0,1-.045-.524q-.089-1.227-.179-2.44t-.09-2.439a.461.461,0,0,0-.06-.18.348.348,0,0,0-.3-.209h-1.706a.323.323,0,0,1-.18-.06.387.387,0,0,1-.135-.15.252.252,0,0,1-.03-.164q.015-.075.135-.105l6.166-1.167A.247.247,0,0,1,451.132,185.578Z"/>
    <path
      class="cls-1"
      d="M466.233,199.571a.18.18,0,0,0,.029-.12c0-.459.01-.9.03-1.332a5.164,5.164,0,0,0-.119-1.332,4.361,4.361,0,0,0-.868-1.9,2.3,2.3,0,0,0-1.886-.763,2.139,2.139,0,0,0-1.646.719,4.331,4.331,0,0,0-.973,1.511,9.4,9.4,0,0,0-.509,1.841,13.826,13.826,0,0,0-.195,1.915q-.03.958-.029,1.8a7.777,7.777,0,0,0,.374,2.394,7.135,7.135,0,0,0,1.092,2.125,5.477,5.477,0,0,0,1.332,1.257,5.083,5.083,0,0,0,1.616.719,5.226,5.226,0,0,0,1.766.119,4.638,4.638,0,0,0,1.752-.538,7.739,7.739,0,0,0,.778-.509,7.358,7.358,0,0,1,.778-.509,1.05,1.05,0,0,1,.359-.165c.08-.009.109.115.09.374a1.292,1.292,0,0,1-.254.614,4.094,4.094,0,0,1-.435.524,5.867,5.867,0,0,1-1.915,1.152,9.529,9.529,0,0,1-2.395.569,11.46,11.46,0,0,1-2.484,0,8.132,8.132,0,0,1-2.185-.524,7.238,7.238,0,0,1-3.068-2.26,8.377,8.377,0,0,1-1.571-3.262,9.074,9.074,0,0,1-.105-3.637,8.475,8.475,0,0,1,1.332-3.367,7.949,7.949,0,0,1,2.738-2.485,8.239,8.239,0,0,1,4.116-.973,8.5,8.5,0,0,1,2.918.494,5.006,5.006,0,0,1,2.32,1.781,5.813,5.813,0,0,1,.659,1.168,10,10,0,0,1,.494,1.436,13.715,13.715,0,0,1,.3,1.5,5.509,5.509,0,0,1,.044,1.317.718.718,0,0,1-.074.224c-.03.051-.1.075-.225.075h-8.949a.423.423,0,0,1-.285-.09.265.265,0,0,1-.1-.209.269.269,0,0,1,.1-.21.588.588,0,0,1,.375-.089h3.113a1.575,1.575,0,0,0,1.107-.359A2.867,2.867,0,0,0,466.233,199.571Z"/>
    <path
      class="cls-1"
      d="M482.216,209.553q.03.135-.18.135h-8.77a.212.212,0,0,1-.239-.24c0-.159.1-.244.284-.254a4.3,4.3,0,0,1,.614.015,3.135,3.135,0,0,0,.613,0,.277.277,0,0,0,.285-.3v-12.99q0-.3-.329-.314a6.19,6.19,0,0,0-.734.015c-.269.02-.509.03-.718.03s-.294-.08-.254-.24a.32.32,0,0,1,.119-.149.281.281,0,0,1,.18-.15l5.3-1.587a.667.667,0,0,1,.374-.014.437.437,0,0,1,.314.194,1.557,1.557,0,0,1,.135.569c.03.279.055.594.075.943s.035.683.045,1a3.155,3.155,0,0,0,.074.689,1.061,1.061,0,0,0,.045.18c.01.02.065.04.165.059q.3.03.689-.538t.942-1.258a7.668,7.668,0,0,1,1.317-1.272,2.894,2.894,0,0,1,1.811-.583,4.525,4.525,0,0,1,.958.1,2.644,2.644,0,0,1,.853.344,1.832,1.832,0,0,1,.6.629,1.9,1.9,0,0,1,.224.958,1.772,1.772,0,0,1-2,2,4.1,4.1,0,0,1-.748-.06,1.589,1.589,0,0,1-.659-.3l-.285-.284q-.195-.195-.4-.419l-.375-.4c-.11-.12-.184-.18-.224-.18a.686.686,0,0,0-.449.03,2.038,2.038,0,0,0-.9.718,6.879,6.879,0,0,0-.793,1.287,9.325,9.325,0,0,0-.554,1.437,4.373,4.373,0,0,0-.21,1.167v8.052a.676.676,0,0,0,.21.389c.139.16.259.24.359.24h2.036l.119.089A1.1,1.1,0,0,1,482.216,209.553Z"/>
    <path
      class="cls-1"
      d="M488.711,209.6c-.1-.06-.105-.139-.015-.24a.369.369,0,0,1,.254-.149H490.3a.265.265,0,0,0,.3-.3v-12.99a.265.265,0,0,0-.3-.3h-1.706a1.2,1.2,0,0,1-.164-.255c-.07-.129-.056-.214.045-.254L494.7,193.5q.389-.09.389.3v15.115c0,.141.08.22.24.24a4.493,4.493,0,0,0,.553.03q.315,0,.614.015a.5.5,0,0,1,.419.2.154.154,0,0,1-.06.239,3.52,3.52,0,0,1-.658.045q-.6.015-1.482.03t-1.915.014h-1.916q-.884,0-1.5-.029a3.88,3.88,0,0,1-.673-.06Zm1.856-21.851a2.047,2.047,0,0,1,.688-1.675,2.332,2.332,0,0,1,3.053,0,2.048,2.048,0,0,1,.689,1.675,2.005,2.005,0,0,1-.689,1.662,2.38,2.38,0,0,1-3.053,0A2,2,0,0,1,490.567,187.747Z"/>
    <path
      class="cls-1"
      d="M505.772,209a2.085,2.085,0,0,0,.4.105l.509.09a3.22,3.22,0,0,1,.433.1q.18.061.18.18,0,.21-.18.21h-7.572a.211.211,0,0,1-.239-.24c0-.159.094-.244.284-.254a4.3,4.3,0,0,1,.614.015,3.135,3.135,0,0,0,.613,0,.276.276,0,0,0,.284-.3v-12.99a.264.264,0,0,0-.3-.3h-1.616q-.12,0-.12-.075v-.135a.32.32,0,0,1,.12-.149.276.276,0,0,1,.179-.15l5.3-1.587a.542.542,0,0,1,.629.15,1.56,1.56,0,0,1,.284.689,3.554,3.554,0,0,1,.045.867c-.02.3-.04.529-.06.689a.769.769,0,0,0,.03.359,1.979,1.979,0,0,0,.12.33V208.88Zm.808-12.721c-.16.04-.265.026-.315-.044s-.035-.175.046-.315c.019-.02.119-.12.3-.3l.329-.33a6.825,6.825,0,0,1,1.976-1.361,6.076,6.076,0,0,1,2.364-.405,5.668,5.668,0,0,1,1.721.27,4.834,4.834,0,0,1,1.512.778,3.937,3.937,0,0,1,1.062,1.257,3.531,3.531,0,0,1,.405,1.706v11.374c0,.141.089.22.269.24a5.428,5.428,0,0,0,.6.03,4.222,4.222,0,0,1,.629.045.476.476,0,0,1,.389.224q.06.15-.03.195a.463.463,0,0,1-.209.045h-7.693a.211.211,0,0,1-.239-.24c0-.159.094-.244.284-.254a4.3,4.3,0,0,1,.614.015,3.135,3.135,0,0,0,.613,0,.277.277,0,0,0,.285-.3V197.535a2.3,2.3,0,0,0-.329-1.317,1.863,1.863,0,0,0-.853-.688,2.63,2.63,0,0,0-1.168-.165,5.552,5.552,0,0,0-1.3.255,3.63,3.63,0,0,0-.374.149,2.75,2.75,0,0,0-.374.21l-.359.179A.644.644,0,0,1,506.58,196.278Z"/>
    <path
      class="cls-1"
      d="M522.384,210.376c0-.02-.06-.09-.18-.209s-.259-.255-.419-.4-.314-.3-.464-.449a2.669,2.669,0,0,1-.285-.315,2.274,2.274,0,0,1-.314-1.227,5.214,5.214,0,0,1,.853-2.933,1.74,1.74,0,0,1,.988-.779c.2-.06.314.006.344.195a4.716,4.716,0,0,1,.046.718,6.182,6.182,0,0,0,.074.928,1.428,1.428,0,0,0,.4.823,1.175,1.175,0,0,0,.419.3,2.362,2.362,0,0,0,.509.09,4.749,4.749,0,0,0,.988.015c.319-.031.648-.055.987-.075q.839-.03,1.886-.045a19.7,19.7,0,0,1,2.14.089,14.014,14.014,0,0,1,2.141.375,6.236,6.236,0,0,1,1.855.793,4.14,4.14,0,0,1,1.3,1.332,3.775,3.775,0,0,1,.494,2,4.6,4.6,0,0,1-.434,2.051,4.964,4.964,0,0,1-1.182,1.541,6.831,6.831,0,0,1-1.706,1.092,12.113,12.113,0,0,1-2.006.7,15.383,15.383,0,0,1-2.095.389,17.413,17.413,0,0,1-1.976.12q-.717,0-1.571-.045a11.773,11.773,0,0,1-1.676-.209,7.31,7.31,0,0,1-1.557-.494,3.777,3.777,0,0,1-1.272-.928,2.872,2.872,0,0,1-.718-1.976,2.216,2.216,0,0,1,.389-1.361,3.951,3.951,0,0,1,.868-.869q.478-.345.838-.613A.7.7,0,0,0,522.384,210.376Zm13.29-16.821a.242.242,0,0,1,.179-.045,1.092,1.092,0,0,0,.18.014.278.278,0,0,1,.3.21,3.79,3.79,0,0,1,.09.389l.119,1.138q.03.238-.3.3a3.278,3.278,0,0,1-1.377-.18,3.594,3.594,0,0,0-1.347-.209.642.642,0,0,0-.239.059.634.634,0,0,0-.06.24,2.805,2.805,0,0,0,.06.808c.06.28.124.559.194.838s.135.559.2.838a3.988,3.988,0,0,1,.089.839,5.267,5.267,0,0,1-.343,1.87,5.445,5.445,0,0,1-.958,1.631,4.919,4.919,0,0,1-1.467,1.168,3.9,3.9,0,0,1-1.841.449h-3.981a3.663,3.663,0,0,1-1.855-.479,5.494,5.494,0,0,1-1.9-1.871,5.734,5.734,0,0,1-.838-2.409,5.023,5.023,0,0,1,.359-2.47,4.556,4.556,0,0,1,1.721-2.05,5.264,5.264,0,0,1,1.347-.643,9.558,9.558,0,0,1,1.6-.375,10.225,10.225,0,0,1,1.646-.1,6.047,6.047,0,0,1,1.482.194,9.6,9.6,0,0,1,.928.3q.568.21,1.167.405a9.639,9.639,0,0,0,1.138.3,1.532,1.532,0,0,0,.838-.015Zm-6.436,17.3q-1.587-.06-3.143-.1t-3.142-.045a.3.3,0,0,0-.27.15,2.57,2.57,0,0,0-.3,1.047q-.06.63-.06,1.108a3.818,3.818,0,0,0,.344,1.617,2.644,2.644,0,0,0,1.122,1.2,5.4,5.4,0,0,0,1.9.6,10.854,10.854,0,0,0,2.425.09,9.886,9.886,0,0,0,2.349-.449,3.787,3.787,0,0,0,1.677-.988,2.354,2.354,0,0,0,.583-1.227,2.485,2.485,0,0,0-.135-1.3,2.778,2.778,0,0,0-.763-1.077,2.454,2.454,0,0,0-1.272-.584,2.92,2.92,0,0,0-.658-.045C529.676,210.85,529.457,210.855,529.238,210.855Zm-4.7-12.122c0,.459.019.963.06,1.511a5.627,5.627,0,0,0,.329,1.556,3.137,3.137,0,0,0,.793,1.228,1.989,1.989,0,0,0,1.422.494,2.1,2.1,0,0,0,1.451-.494,3.3,3.3,0,0,0,.853-1.212,5.935,5.935,0,0,0,.4-1.557,12.352,12.352,0,0,0,.105-1.526q0-.659-.074-1.5a6.361,6.361,0,0,0-.345-1.586,3.049,3.049,0,0,0-.808-1.242,2.04,2.04,0,0,0-1.437-.494,2.234,2.234,0,0,0-1.511.478,2.878,2.878,0,0,0-.823,1.213,6.107,6.107,0,0,0-.345,1.571Q524.539,198.015,524.539,198.733Z"/>
    <path
      class="cls-1"
      d="M559.079,209.777a1.862,1.862,0,0,1-.24-.613,2.8,2.8,0,0,0-.209-.644l-.029-.059q-.959-2.336-1.736-4.715t-1.647-4.714q-.36-.957-.643-1.976a9.473,9.473,0,0,0-.764-1.915.9.9,0,0,0-.434-.494,1.6,1.6,0,0,0-.508-.12c-.171-.01-.325-.024-.464-.045a.438.438,0,0,1-.329-.239.166.166,0,0,1,.029-.21.327.327,0,0,1,.24-.09h7.812a.212.212,0,0,1,.239.24c0,.18-.11.269-.329.269s-.464-.009-.734-.029a6.153,6.153,0,0,0-.732-.015q-.33.015-.33.314a7.149,7.149,0,0,0,.165,1.512,15.044,15.044,0,0,0,.4,1.5q.24.734.525,1.466t.524,1.423q.3.867.613,1.646t.554,1.571q.239.793.4,1.616a8.907,8.907,0,0,1,.164,1.751,3.53,3.53,0,0,1-.089.584q-.09.435-.21.9a8.435,8.435,0,0,1-.254.823c-.09.24-.176.359-.255.359h-1.557Zm9.309-15.354c-.08,0-.139.07-.179.209a2.815,2.815,0,0,0,.045,1.377,13.015,13.015,0,0,0,.538,1.736q.343.9.7,1.736t.6,1.347q.36.869.659,1.751t.6,1.751c.139.459.265.858.374,1.2a6.588,6.588,0,0,1,.24.973,3.919,3.919,0,0,1,.03.973,6.633,6.633,0,0,1-.254,1.227,3.267,3.267,0,0,1-.105.314c-.05.13-.105.26-.165.389a1.669,1.669,0,0,1-.21.345.341.341,0,0,1-.269.149h-1.287a.317.317,0,0,1-.2-.089.892.892,0,0,1-.164-.18,3.747,3.747,0,0,1-.12-.359c-.04-.14-.08-.259-.12-.36q-.149-.418-.284-.808t-.284-.808q-.779-2.3-1.6-4.534a33.428,33.428,0,0,1-1.332-4.625,1.889,1.889,0,0,1-.059-.239,1.415,1.415,0,0,0-.091-.285.57.57,0,0,0-.149-.209c-.06-.05-.13-.035-.209.045a3.37,3.37,0,0,0-.39.882q-.269.763-.568,1.692t-.569,1.8c-.179.579-.31.968-.389,1.167-.1.279-.195.559-.284.838s-.185.559-.285.838a.672.672,0,0,1-.089.18c-.061.1-.12.2-.18.3a.563.563,0,0,1-.164.194c-.051.031-.066-.014-.045-.134q.088-.508.283-1.212t.435-1.437q.24-.734.508-1.437c.18-.469.33-.872.45-1.212q.417-1.167.823-2.335t.733-2.364a.471.471,0,0,0,.044-.24,1.654,1.654,0,0,1-.014-.239q0-.3-.344-.314a6.382,6.382,0,0,0-.748.015c-.27.02-.52.029-.749.029s-.345-.089-.345-.269a.213.213,0,0,1,.24-.24h6.706a.24.24,0,0,1,0,.48Zm9.787-.48a.16.16,0,0,1,.181.18.272.272,0,0,1-.181.24,11.679,11.679,0,0,0-1.212.523,2.932,2.932,0,0,0-.972.913.332.332,0,0,1-.061.09.349.349,0,0,0-.059.09q-.24.628-.419,1.287t-.389,1.287q-.45,1.377-.883,2.739t-.913,2.739a5.229,5.229,0,0,1-.3.658.681.681,0,0,1-.179.24.058.058,0,0,1-.089-.03.316.316,0,0,1-.016-.18,1.712,1.712,0,0,0,.016-.209,5.255,5.255,0,0,1,.193-.913q.136-.434.285-.884.389-1.257.734-2.469t.7-2.469c.04-.1.1-.274.179-.524s.165-.509.255-.778.169-.519.239-.749a1.964,1.964,0,0,0,.106-.463,1.652,1.652,0,0,0-.016-.479c-.03-.24-.094-.359-.195-.359h-2.154a.24.24,0,0,1,0-.48Z"/>
    <path
      class="cls-1"
      d="M580.27,209.6c-.1-.06-.1-.139-.014-.24a.366.366,0,0,1,.254-.149h1.347a.265.265,0,0,0,.3-.3v-12.99a.265.265,0,0,0-.3-.3h-1.706a1.163,1.163,0,0,1-.164-.255c-.071-.129-.056-.214.044-.254l6.226-1.616q.389-.09.389.3v15.115c0,.141.08.22.24.24a4.47,4.47,0,0,0,.553.03c.209,0,.413,0,.614.015a.5.5,0,0,1,.419.2.155.155,0,0,1-.06.239,3.537,3.537,0,0,1-.659.045q-.6.015-1.481.03c-.588.01-1.228.014-1.915.014h-1.916q-.884,0-1.5-.029a3.9,3.9,0,0,1-.674-.06Zm1.856-21.851a2.045,2.045,0,0,1,.689-1.675,2.331,2.331,0,0,1,3.052,0,2.046,2.046,0,0,1,.69,1.675,2,2,0,0,1-.69,1.662,2.379,2.379,0,0,1-3.052,0A2,2,0,0,1,582.126,187.747Z"/>
    <path
      class="cls-1"
      d="M592.662,194.931q0-.3-.374-.329a4.612,4.612,0,0,0-.824.015c-.3.03-.574.045-.823.045s-.374-.1-.374-.3q0-.15.06-.18a1,1,0,0,1,.18-.06c.119-.019.3-.039.538-.06s.49-.05.749-.089a3.9,3.9,0,0,0,.689-.165.644.644,0,0,0,.388-.285,11.327,11.327,0,0,0,.7-2.05q.254-1.062.614-2.11c.059-.159.149-.239.269-.239l2.275-.15q.329,0,.329.3v4.37a.264.264,0,0,0,.3.3h2.993c.14,0,.224.035.255.106a.735.735,0,0,1,.044.284.264.264,0,0,1-.3.3h-2.993a.264.264,0,0,0-.3.3v11.584a1.783,1.783,0,0,0,.659,1.482,2.466,2.466,0,0,0,1.586.523,5.888,5.888,0,0,0,.808-.044,2.488,2.488,0,0,0,.748-.285.692.692,0,0,1,.284-.09c.071,0,.085.09.045.27a1.324,1.324,0,0,1-.358.584,3.9,3.9,0,0,1-.689.568,4.37,4.37,0,0,1-.808.419,1.987,1.987,0,0,1-.689.165h-3.2a1.964,1.964,0,0,1-1.048-.315,3.422,3.422,0,0,1-.883-.778,4.2,4.2,0,0,1-.613-1.032,2.774,2.774,0,0,1-.24-1.078Z"/>
    <path
      class="cls-1"
      d="M608.915,185.563h.15a.332.332,0,0,1,.149.03.141.141,0,0,1,.12.149c.019.239.03.674.03,1.3s-.011,1.337-.03,2.126-.045,1.616-.075,2.484-.06,1.666-.09,2.4-.045,1.336-.045,1.825a2.332,2.332,0,0,0,.061.794.756.756,0,0,0,.179.179.273.273,0,0,1,.09.24v11.822a.264.264,0,0,0,.3.3h1.138a.24.24,0,0,1,0,.479H603.2c-.16,0-.239-.055-.239-.165a.352.352,0,0,1,.149-.284.619.619,0,0,1,.419-.06l.614.06a2.122,2.122,0,0,0,.569-.015.284.284,0,0,0,.254-.315V187.538c0-.2-.1-.3-.315-.314a5.419,5.419,0,0,0-.688.015q-.374.03-.689.03c-.209,0-.313-.09-.313-.27a.283.283,0,0,1,.239-.3Zm4.49,23.826a.567.567,0,0,1,.463-.18c.21,0,.424,0,.644.015a3.39,3.39,0,0,0,.568-.015.261.261,0,0,0,.24-.3V198.523a5.486,5.486,0,0,0-.179-1.422,2.781,2.781,0,0,0-.569-1.122,1.965,1.965,0,0,0-1-.614,2.576,2.576,0,0,0-1.451.1,2.144,2.144,0,0,0-.464.225,6.843,6.843,0,0,1-.824.388,2.3,2.3,0,0,1-.673.18c-.169.01-.155-.124.045-.4a5.49,5.49,0,0,1,2.141-1.751,6.413,6.413,0,0,1,2.708-.584,4.872,4.872,0,0,1,3.457,1.213,4.413,4.413,0,0,1,1.3,3.4v10.775a.271.271,0,0,0,.27.3,2.836,2.836,0,0,0,.583,0,3.893,3.893,0,0,1,.584-.015c.179.01.269.095.269.254a.212.212,0,0,1-.24.24h-7.632C613.424,209.688,613.345,209.588,613.405,209.389Z"/>
    <path
      class="cls-1"
      d="M640.673,194.931q0-.3-.375-.329a4.6,4.6,0,0,0-.823.015c-.3.03-.574.045-.823.045s-.374-.1-.374-.3q0-.15.06-.18a.989.989,0,0,1,.179-.06c.12-.019.3-.039.539-.06s.489-.05.748-.089a3.853,3.853,0,0,0,.689-.165.643.643,0,0,0,.389-.285,11.327,11.327,0,0,0,.7-2.05q.254-1.062.613-2.11c.06-.159.149-.239.269-.239l2.275-.15q.33,0,.33.3v4.37a.264.264,0,0,0,.3.3h2.993c.139,0,.224.035.254.106a.715.715,0,0,1,.045.284.264.264,0,0,1-.3.3h-2.993a.264.264,0,0,0-.3.3v11.584a1.785,1.785,0,0,0,.658,1.482,2.471,2.471,0,0,0,1.587.523,5.861,5.861,0,0,0,.807-.044,2.492,2.492,0,0,0,.749-.285.688.688,0,0,1,.284-.09q.1,0,.045.27a1.318,1.318,0,0,1-.359.584,3.855,3.855,0,0,1-.688.568,4.434,4.434,0,0,1-.808.419,1.987,1.987,0,0,1-.689.165h-3.2a1.964,1.964,0,0,1-1.047-.315,3.422,3.422,0,0,1-.883-.778,4.238,4.238,0,0,1-.614-1.032,2.771,2.771,0,0,1-.239-1.078Z"/>
    <path
      class="cls-1"
      d="M656.926,185.563h.15a.332.332,0,0,1,.149.03.141.141,0,0,1,.12.149c.019.239.03.674.03,1.3s-.011,1.337-.03,2.126-.045,1.616-.075,2.484-.06,1.666-.09,2.4-.045,1.336-.045,1.825a2.379,2.379,0,0,0,.06.794.758.758,0,0,0,.18.179.272.272,0,0,1,.089.24v11.822a.265.265,0,0,0,.3.3H658.9a.24.24,0,0,1,0,.479h-7.693c-.161,0-.24-.055-.24-.165a.354.354,0,0,1,.149-.284.62.62,0,0,1,.419-.06l.614.06a2.119,2.119,0,0,0,.569-.015.284.284,0,0,0,.255-.315V187.538a.287.287,0,0,0-.315-.314,5.412,5.412,0,0,0-.688.015q-.374.03-.689.03c-.209,0-.314-.09-.314-.27a.283.283,0,0,1,.24-.3Zm4.489,23.826a.57.57,0,0,1,.464-.18c.21,0,.424,0,.644.015a3.4,3.4,0,0,0,.568-.015.261.261,0,0,0,.24-.3V198.523a5.529,5.529,0,0,0-.179-1.422,2.781,2.781,0,0,0-.569-1.122,1.973,1.973,0,0,0-1-.614,2.58,2.58,0,0,0-1.452.1,2.144,2.144,0,0,0-.464.225,6.759,6.759,0,0,1-.823.388,2.313,2.313,0,0,1-.673.18c-.17.01-.155-.124.045-.4a5.487,5.487,0,0,1,2.14-1.751,6.42,6.42,0,0,1,2.709-.584,4.872,4.872,0,0,1,3.457,1.213,4.413,4.413,0,0,1,1.3,3.4v10.775a.27.27,0,0,0,.27.3,2.836,2.836,0,0,0,.583,0,3.893,3.893,0,0,1,.584-.015c.179.01.269.095.269.254a.212.212,0,0,1-.24.24h-7.632C661.435,209.688,661.356,209.588,661.415,209.389Z"/>
    <path
      class="cls-1"
      d="M682.667,199.571a.179.179,0,0,0,.03-.12c0-.459.01-.9.03-1.332a5.123,5.123,0,0,0-.12-1.332,4.35,4.35,0,0,0-.868-1.9,2.3,2.3,0,0,0-1.885-.763,2.141,2.141,0,0,0-1.647.719,4.329,4.329,0,0,0-.972,1.511,9.474,9.474,0,0,0-.51,1.841,13.979,13.979,0,0,0-.194,1.915q-.03.958-.03,1.8a7.807,7.807,0,0,0,.374,2.394,7.182,7.182,0,0,0,1.092,2.125,5.5,5.5,0,0,0,1.332,1.257,5.088,5.088,0,0,0,1.617.719,5.226,5.226,0,0,0,1.766.119,4.633,4.633,0,0,0,1.751-.538,7.627,7.627,0,0,0,.778-.509,7.462,7.462,0,0,1,.778-.509,1.061,1.061,0,0,1,.36-.165c.079-.009.109.115.089.374a1.292,1.292,0,0,1-.254.614,4.179,4.179,0,0,1-.434.524,5.872,5.872,0,0,1-1.916,1.152,9.511,9.511,0,0,1-2.394.569,11.469,11.469,0,0,1-2.485,0,8.151,8.151,0,0,1-2.185-.524,7.241,7.241,0,0,1-3.067-2.26,8.379,8.379,0,0,1-1.572-3.262,9.092,9.092,0,0,1-.105-3.637,8.49,8.49,0,0,1,1.332-3.367A7.943,7.943,0,0,1,676.1,194.5a8.24,8.24,0,0,1,4.115-.973,8.508,8.508,0,0,1,2.919.494,5,5,0,0,1,2.319,1.781,5.813,5.813,0,0,1,.659,1.168,9.76,9.76,0,0,1,.494,1.436,13.257,13.257,0,0,1,.3,1.5,5.462,5.462,0,0,1,.045,1.317.69.69,0,0,1-.075.224c-.029.051-.1.075-.224.075H677.7a.422.422,0,0,1-.285-.09.266.266,0,0,1-.105-.209.27.27,0,0,1,.105-.21.585.585,0,0,1,.374-.089H680.9a1.574,1.574,0,0,0,1.107-.359A2.867,2.867,0,0,0,682.667,199.571Z"/>
    <path
      class="cls-1"
      d="M707.57,208.88c.04.04.19.05.449.029a8.367,8.367,0,0,1,.868-.014,4.008,4.008,0,0,1,.883.119.622.622,0,0,1,.494.4c.06.18-.019.27-.24.27h-6.076c-.219,0-.3-.09-.238-.27a.471.471,0,0,1,.344-.269,3.629,3.629,0,0,1,.643-.135c.239-.03.474-.049.7-.059a2.078,2.078,0,0,0,.524-.075.629.629,0,0,0,.344-.21,2.062,2.062,0,0,0,.165-.359q1.257-4.011,2.544-7.947t2.574-7.947a4.131,4.131,0,0,0,.135-.6,1.673,1.673,0,0,1,.194-.568c.1-.2.189-.235.27-.1a1.092,1.092,0,0,1,.149.344,38.1,38.1,0,0,1-1.017,3.7q-.6,1.81-1.138,3.667c-.04.139-.1.343-.179.613l-.254.853q-.135.45-.226.868a3.365,3.365,0,0,0-.089.6.521.521,0,0,0,.045.254q.045.075.255.075h6.166a.324.324,0,0,0,.239-.09V202a.166.166,0,0,0,.03-.209c-.1-.279-.194-.549-.285-.808s-.184-.529-.284-.809a18.526,18.526,0,0,1-.538-2.05q-.212-1.033-.48-2.05-.209-.778-.419-1.527t-.449-1.526q-.18-.569-.389-1.138a5.5,5.5,0,0,0-.538-1.077c-.1-.16-.186-.284-.255-.375a1.019,1.019,0,0,1-.164-.4q-.032.06,0-.06a.887.887,0,0,0,.03-.18l.119-.389c.08-.24.155-.484.225-.734a4.78,4.78,0,0,1,.254-.7,1.847,1.847,0,0,1,.09-.164c.019-.03.08-.046.179-.046h2.365c.1,0,.159.016.18.046s.05.085.09.164l6.914,20.354a1.491,1.491,0,0,0,.329.509.548.548,0,0,0,.374.089c.189,0,.4.011.628.03a3.822,3.822,0,0,1,.674.12.912.912,0,0,1,.509.33.143.143,0,0,1,0,.209.324.324,0,0,1-.239.09h-9.339q-.3,0-.24-.18a.477.477,0,0,1,.21-.269,1.155,1.155,0,0,1,.4-.105c.209-.03.434-.06.673-.09s.469-.054.689-.075.389-.039.508-.06a.91.91,0,0,0,.181-.059c.039-.02.069-.08.089-.18V208.4a1.373,1.373,0,0,0-.18-.539,3.512,3.512,0,0,1-.239-.569q-.12-.3-.314-.988t-.405-1.421q-.208-.733-.433-1.332a2.472,2.472,0,0,0-.374-.748.292.292,0,0,0-.21-.091h-6.525a.5.5,0,0,0-.329.18,1.307,1.307,0,0,0-.24.3,1.464,1.464,0,0,0-.149.479,4.265,4.265,0,0,1-.091.48q-.148.6-.314,1.167t-.343,1.167c-.021.06-.066.185-.136.374s-.144.389-.224.6-.15.4-.21.568a2.146,2.146,0,0,0-.089.285,2.114,2.114,0,0,0,.014.239,1.935,1.935,0,0,1,.016.24Z"/>
    <path
      class="cls-1"
      d="M733.671,209a2.1,2.1,0,0,0,.4.105l.509.09a3.276,3.276,0,0,1,.434.1c.12.041.179.1.179.18,0,.14-.059.21-.179.21h-7.572a.212.212,0,0,1-.24-.24c0-.159.094-.244.284-.254a4.283,4.283,0,0,1,.613.015,3.145,3.145,0,0,0,.614,0,.277.277,0,0,0,.285-.3v-12.99a.265.265,0,0,0-.3-.3h-1.616q-.12,0-.12-.075v-.135a.326.326,0,0,1,.12-.149.279.279,0,0,1,.179-.15l5.3-1.587a.541.541,0,0,1,.628.15,1.561,1.561,0,0,1,.285.689,3.656,3.656,0,0,1,.045.867c-.021.3-.041.529-.061.689a.783.783,0,0,0,.03.359,1.979,1.979,0,0,0,.12.33V208.88Zm.808-12.721c-.159.04-.265.026-.314-.044s-.035-.175.044-.315l.3-.3.329-.33a6.825,6.825,0,0,1,1.976-1.361,6.078,6.078,0,0,1,2.365-.405,5.666,5.666,0,0,1,1.72.27,4.834,4.834,0,0,1,1.512.778,3.924,3.924,0,0,1,1.062,1.257,3.531,3.531,0,0,1,.405,1.706v11.374c0,.141.089.22.269.24a5.447,5.447,0,0,0,.6.03,4.218,4.218,0,0,1,.628.045.478.478,0,0,1,.389.224q.06.15-.03.195a.461.461,0,0,1-.21.045h-7.692a.211.211,0,0,1-.239-.24c0-.159.1-.244.284-.254a4.3,4.3,0,0,1,.614.015,3.145,3.145,0,0,0,.614,0,.276.276,0,0,0,.284-.3V197.535a2.3,2.3,0,0,0-.329-1.317,1.861,1.861,0,0,0-.854-.688,2.624,2.624,0,0,0-1.167-.165,5.552,5.552,0,0,0-1.3.255,3.63,3.63,0,0,0-.374.149,2.75,2.75,0,0,0-.374.21l-.36.179A.623.623,0,0,1,734.479,196.278Z"/>
    <path
      class="cls-1"
      d="M748.068,201.816a8.916,8.916,0,0,1,.614-3.353,7.566,7.566,0,0,1,4.325-4.325,9.621,9.621,0,0,1,6.764,0,7.073,7.073,0,0,1,2.53,1.721,7.564,7.564,0,0,1,1.586,2.664,10.12,10.12,0,0,1,.554,3.412,9.1,9.1,0,0,1-.583,3.323,7.626,7.626,0,0,1-1.632,2.574,7.267,7.267,0,0,1-2.544,1.676,8.879,8.879,0,0,1-3.323.6,9.19,9.19,0,0,1-3.382-.6,7.405,7.405,0,0,1-4.31-4.31A9.173,9.173,0,0,1,748.068,201.816Zm4.759,0q0,.6.016,1.406c.009.539.045,1.093.1,1.662a12.4,12.4,0,0,0,.3,1.691,5.323,5.323,0,0,0,.6,1.481,3.307,3.307,0,0,0,.988,1.048,2.891,2.891,0,0,0,2.948,0,3.207,3.207,0,0,0,.957-1.048,5.324,5.324,0,0,0,.57-1.481,12.318,12.318,0,0,0,.269-1.691q.075-.853.074-1.662v-1.406q0-.9-.014-2.215a11.673,11.673,0,0,0-.3-2.53,5.337,5.337,0,0,0-.958-2.08,2.365,2.365,0,0,0-1.991-.868,2.607,2.607,0,0,0-2.094.838,5.169,5.169,0,0,0-1.049,2.051,11.082,11.082,0,0,0-.374,2.529Q752.829,200.858,752.827,201.816Z"/>
    <path
      class="cls-1"
      d="M773.6,209a1.486,1.486,0,0,0,.39.105c.179.03.349.06.509.09a4.189,4.189,0,0,1,.433.1q.195.061.195.18c0,.14-.059.21-.179.21h-7.573a.212.212,0,0,1-.24-.24c0-.159.1-.244.285-.254a4.283,4.283,0,0,1,.613.015,3.145,3.145,0,0,0,.614,0,.276.276,0,0,0,.284-.3v-12.99a.265.265,0,0,0-.3-.3h-1.616q-.12,0-.12-.075v-.135a.326.326,0,0,1,.12-.149.276.276,0,0,1,.179-.15l5.328-1.587a1.657,1.657,0,0,1,.359-.029.461.461,0,0,1,.329.089,1.224,1.224,0,0,1,.075.359c.03.221.06.465.09.734s.059.529.09.778.045.4.045.464a3.268,3.268,0,0,1,.044.7q-.014.375-.014.7V208.88Zm10.088-.09a1.028,1.028,0,0,0,.463.21q.285.06.539.1c.17.03.315.059.435.09s.179.085.179.164c0,.14-.06.21-.179.21H777.55c-.2,0-.269-.08-.209-.24a.331.331,0,0,1,.345-.254,4.051,4.051,0,0,1,.6.015,2.7,2.7,0,0,0,.569,0,.266.266,0,0,0,.254-.3V197.116a1.425,1.425,0,0,0-.209-.778,1.934,1.934,0,0,0-.749-.673,2.612,2.612,0,0,0-.943-.27,3.137,3.137,0,0,0-1,.075,6.8,6.8,0,0,0-.958.3,4.7,4.7,0,0,0-.435.255,2.471,2.471,0,0,1-.4.224q-.24.09-.345,0c-.07-.06-.045-.169.075-.329a4.506,4.506,0,0,1,.374-.389q.225-.209.374-.359a6.958,6.958,0,0,1,1.946-1.257,6.012,6.012,0,0,1,2.275-.39,3.437,3.437,0,0,1,1.8.434,5.874,5.874,0,0,1,1.228.973q.509.538.867.973a.977.977,0,0,0,.719.434.54.54,0,0,0,.313-.18c.13-.119.226-.209.285-.269a10.95,10.95,0,0,1,1.272-1.092,8.451,8.451,0,0,1,1.452-.854,4.49,4.49,0,0,1,1.975-.419,7.293,7.293,0,0,1,1.647.18,4.081,4.081,0,0,1,1.377.584,3.126,3.126,0,0,1,.972,1.062,3.966,3.966,0,0,1,.464,1.587q.24,2.932.225,5.851t-.016,5.852a.179.179,0,0,0,.03.12.533.533,0,0,1,.045.12.642.642,0,0,0,.045.119.389.389,0,0,0,.374.225,3.607,3.607,0,0,0,.569-.015,2.159,2.159,0,0,1,.509,0,.224.224,0,0,1,.225.239.212.212,0,0,1-.24.24h-7.513a.212.212,0,0,1-.24-.24c0-.159.1-.244.285-.254a4.3,4.3,0,0,1,.614.015,3.145,3.145,0,0,0,.614,0,.276.276,0,0,0,.284-.3V197.924a2.819,2.819,0,0,0-.434-1.676,2.053,2.053,0,0,0-1.062-.793,3.211,3.211,0,0,0-1.393-.09,4.485,4.485,0,0,0-1.391.419,4.063,4.063,0,0,0-1.063.749,1.258,1.258,0,0,0-.434.883q0,2.9.09,5.747T783.687,208.909Z"/>
    <path
      class="cls-1"
      d="M809.338,210.077a3,3,0,0,1-.748-.389,4.307,4.307,0,0,1-.718-.629,3.966,3.966,0,0,1-.555-.763,1.635,1.635,0,0,1-.224-.793v-.6l.09-5.866a.33.33,0,0,0-.24-.33,1.055,1.055,0,0,0-.448-.03,2.9,2.9,0,0,0-.554.12q-.285.09-.554.18a2.176,2.176,0,0,0-.419.179,5.215,5.215,0,0,0-2.6,2.814,4.792,4.792,0,0,0-.374,1.481,3.626,3.626,0,0,0,.15,1.482,2.421,2.421,0,0,0,.763,1.137,2.266,2.266,0,0,0,1.5.449,1.982,1.982,0,0,0,.464-.1c.23-.07.454-.13.674-.18a1.489,1.489,0,0,1,.523-.045q.2.03.045.329a2.44,2.44,0,0,1-1.3,1.123,5.83,5.83,0,0,1-1.976.419,7.861,7.861,0,0,1-2.064-.18,3.889,3.889,0,0,1-1.6-.7,2.646,2.646,0,0,1-.928-1.287,5.2,5.2,0,0,1-.239-1.587,3.848,3.848,0,0,1,.658-2.26,5.99,5.99,0,0,1,1.676-1.6,9.511,9.511,0,0,1,2.2-1.047q1.183-.39,2.261-.629c.119-.02.278-.045.478-.075s.409-.064.629-.105.424-.079.614-.12a1.8,1.8,0,0,0,.4-.119.485.485,0,0,0,.314-.494q-.015-.343-.015-.614v-1.107q0-.6-.06-1.212a6.183,6.183,0,0,0-.225-1.167,3.228,3.228,0,0,0-.494-1,1.427,1.427,0,0,0-1.226-.629c-.12,0-.3,0-.555-.015s-.5-.015-.763-.015-.5.011-.718.03a1.415,1.415,0,0,0-.449.09c-.08.04-.13.185-.15.434s-.045.554-.075.913-.08.733-.149,1.122a4.4,4.4,0,0,1-.344,1.093,2.236,2.236,0,0,1-.674.838,1.8,1.8,0,0,1-1.123.329,1.674,1.674,0,0,1-1.181-.374,1.5,1.5,0,0,1-.48-.928,2.454,2.454,0,0,1,.136-1.152,2.928,2.928,0,0,1,.628-1.048,5.058,5.058,0,0,1,1.3-.988,6.944,6.944,0,0,1,1.571-.6,10.871,10.871,0,0,1,1.692-.285q.852-.073,1.631-.074.418,0,.838.015c.279.01.558.014.838.014a3.781,3.781,0,0,1,1.691.39,4.54,4.54,0,0,1,1.377,1.032,4.825,4.825,0,0,1,.913,1.482,4.643,4.643,0,0,1,.329,1.706V208.1a.463.463,0,0,0,.135.344,1.447,1.447,0,0,0,.284.225,1.51,1.51,0,0,0,.464.225.887.887,0,0,0,.36.014,1.26,1.26,0,0,0,.344-.119,3.358,3.358,0,0,1,.449-.18,1.133,1.133,0,0,1,.344-.09c.07,0,.084.11.044.33a.641.641,0,0,1-.119.269,1.958,1.958,0,0,1-.18.21,2.124,2.124,0,0,1-.882.523,5.6,5.6,0,0,1-1.094.225,8.824,8.824,0,0,1-1.137.045c-.379-.01-.729-.015-1.047-.015A.177.177,0,0,1,809.338,210.077Z"/>
    <path
      class="cls-1"
      d="M815.983,209.688a.212.212,0,0,1-.24-.24c0-.179.1-.269.314-.269a5.8,5.8,0,0,1,.689.045,3.216,3.216,0,0,0,.688.015.3.3,0,0,0,.315-.33V187.538a.265.265,0,0,0-.3-.3h-1.466a.212.212,0,0,1-.24-.24.283.283,0,0,1,.24-.3l5.9-1.2q.359-.09.359.3V208.79a.469.469,0,0,0,.419.419h1.318a.284.284,0,0,1,.3.239q.06.24-.269.24Z"/>
    <path
      class="cls-1"
      d="M826.818,209.6c-.1-.06-.105-.139-.016-.24a.369.369,0,0,1,.254-.149H828.4a.265.265,0,0,0,.3-.3v-12.99a.265.265,0,0,0-.3-.3H826.7a1.194,1.194,0,0,1-.165-.255c-.07-.129-.055-.214.045-.254L832.8,193.5q.389-.09.389.3v15.115c0,.141.08.22.24.24a4.47,4.47,0,0,0,.553.03q.314,0,.614.015a.5.5,0,0,1,.419.2.154.154,0,0,1-.06.239,3.542,3.542,0,0,1-.658.045q-.6.015-1.482.03t-1.916.014h-1.915c-.589,0-1.089-.009-1.5-.029a3.865,3.865,0,0,1-.673-.06Zm1.855-21.851a2.048,2.048,0,0,1,.689-1.675,2.331,2.331,0,0,1,3.052,0,2.048,2.048,0,0,1,.689,1.675,2.005,2.005,0,0,1-.689,1.662,2.379,2.379,0,0,1-3.052,0A2.005,2.005,0,0,1,828.673,187.747Z"/>
    <path
      class="cls-1"
      d="M848.158,199.571a.179.179,0,0,0,.03-.12c0-.459.01-.9.03-1.332a5.123,5.123,0,0,0-.12-1.332,4.339,4.339,0,0,0-.868-1.9,2.3,2.3,0,0,0-1.885-.763,2.141,2.141,0,0,0-1.647.719,4.329,4.329,0,0,0-.972,1.511,9.474,9.474,0,0,0-.51,1.841,13.979,13.979,0,0,0-.194,1.915q-.03.958-.03,1.8a7.807,7.807,0,0,0,.374,2.394,7.161,7.161,0,0,0,1.093,2.125,5.491,5.491,0,0,0,1.331,1.257,5.088,5.088,0,0,0,1.617.719,5.226,5.226,0,0,0,1.766.119,4.633,4.633,0,0,0,1.751-.538,7.627,7.627,0,0,0,.778-.509,7.462,7.462,0,0,1,.778-.509,1.061,1.061,0,0,1,.36-.165c.079-.009.109.115.089.374a1.292,1.292,0,0,1-.254.614,4.179,4.179,0,0,1-.434.524,5.872,5.872,0,0,1-1.916,1.152,9.511,9.511,0,0,1-2.394.569,11.46,11.46,0,0,1-2.484,0,8.149,8.149,0,0,1-2.186-.524,7.241,7.241,0,0,1-3.067-2.26,8.379,8.379,0,0,1-1.572-3.262,9.111,9.111,0,0,1-.1-3.637,8.49,8.49,0,0,1,1.332-3.367,7.943,7.943,0,0,1,2.739-2.485,8.24,8.24,0,0,1,4.115-.973,8.508,8.508,0,0,1,2.919.494,5,5,0,0,1,2.319,1.781,5.813,5.813,0,0,1,.659,1.168,9.644,9.644,0,0,1,.494,1.436,13.257,13.257,0,0,1,.3,1.5,5.462,5.462,0,0,1,.045,1.317.69.69,0,0,1-.075.224c-.029.051-.1.075-.224.075H843.19a.422.422,0,0,1-.285-.09.266.266,0,0,1-.105-.209.27.27,0,0,1,.105-.21.585.585,0,0,1,.374-.089h3.113a1.574,1.574,0,0,0,1.107-.359A2.853,2.853,0,0,0,848.158,199.571Z"/>
    <path
      class="cls-1"
      d="M866.027,198.134c-.139,0-.275.005-.4.015s-.224-.065-.284-.225a10.57,10.57,0,0,1-.494-1.5,8.643,8.643,0,0,0-.524-1.5,1.19,1.19,0,0,0-.433-.479,1.737,1.737,0,0,0-.629-.239,5.436,5.436,0,0,0-.7-.075q-.36-.015-.629-.015a4.442,4.442,0,0,0-1.138.15,3.6,3.6,0,0,0-1.033.449,2.339,2.339,0,0,0-.748.778,2.122,2.122,0,0,0-.283,1.108,2.412,2.412,0,0,0,.388,1.421,3.409,3.409,0,0,0,1.018.943,6.779,6.779,0,0,0,1.437.659q.807.268,1.661.538a15.993,15.993,0,0,1,1.661.629,5.841,5.841,0,0,1,1.436.9,4.15,4.15,0,0,1,1.019,1.332,4.434,4.434,0,0,1,.388,1.96,4.58,4.58,0,0,1-2.873,4.49,7.422,7.422,0,0,1-1.092.434,5.15,5.15,0,0,1-.883.18,6.526,6.526,0,0,1-.9.03q-.48-.015-1.137-.015c-.419,0-.879-.015-1.377-.045s-.994-.08-1.482-.15a8.676,8.676,0,0,1-1.437-.329,4.938,4.938,0,0,1-1.243-.584.294.294,0,0,1-.149-.269q0-.808-.015-1.676a7.218,7.218,0,0,1,.164-1.676.271.271,0,0,1,.3-.27h1.137q.088,0,.15.15a1.625,1.625,0,0,1,.089.344c.02.13.034.259.045.389s.015.215.015.254a4.625,4.625,0,0,0,.434,1.737,2.539,2.539,0,0,0,1.272,1.2,3.94,3.94,0,0,0,1.586.359,4.448,4.448,0,0,0,1.706-.269,3.381,3.381,0,0,0,1.362-.913,2.216,2.216,0,0,0,.555-1.542,3.642,3.642,0,0,0-.106-.9,2.013,2.013,0,0,0-.433-.808,4.015,4.015,0,0,0-1.437-1.077q-.9-.418-1.886-.764t-1.961-.718a5.933,5.933,0,0,1-1.691-.973,4.246,4.246,0,0,1-.688-.748,2,2,0,0,1-.419-.9,2.877,2.877,0,0,1-.015-.524c.01-.19.015-.364.015-.524a4.711,4.711,0,0,1,3.981-5.088,9.764,9.764,0,0,1,1.033-.165q.642-.073,1.391-.1t1.557.015a13.673,13.673,0,0,1,1.511.165,6.033,6.033,0,0,1,1.257.345,1.663,1.663,0,0,1,.793.583.244.244,0,0,1,.061.179c0,.2.009.485.03.854a8.348,8.348,0,0,1-.016,1.107,2.689,2.689,0,0,1-.24.958A.684.684,0,0,1,866.027,198.134Z"/>
  </g>
</svg>
