<!DOCTYPE svg PUBLIC "-//W3C//DTD SVG 20010904//EN" "http://www.w3.org/TR/2001/REC-SVG-20010904/DTD/svg10.dtd"><svg id="meteorological-department-2" xmlns="http://www.w3.org/2000/svg" viewBox="0 0 500 500"><defs><style>
      .cls-1 {
        opacity: 0;
      }
      .cls-2 {
        fill: #f16524;
      }
      .cls-3 {
        fill: #fff;
      }
      .cls-4 {
        fill: #4ae3ff;
      }
      .cls-5,
      .cls-6 {
        fill: none;
        stroke: #000;
        stroke-miterlimit: 10;
      }
      .cls-5 {
        stroke-width: 6px;
      }
      .cls-6 {
        stroke-width: 15px;
      }
    </style></defs><rect id="bg" class="cls-1" width="500" height="500"/><g id="inner"><circle id="sun" class="cls-2" cx="250.951" cy="250" r="105"/><path
      id="cloud"
      class="cls-3"
      d="M151.751,284.48A105.038,105.038,0,0,0,250.777,355c57.222.092,104.384-46.32,105.164-103.537a104.664,104.664,0,0,0-29.958-74.9c-26.938.357-53.784,15.565-65.605,41.4-20.088-9.384-39.365-5.341-48.895.371-9.8,5.875-21.491,18.29-21.579,37.509C172.9,259.821,159.1,270.544,151.751,284.48Z"/><path
      id="wave1"
      class="cls-4"
      d="M162.467,316.617C193.389,357.6,248.584,372,294.822,351.591c44.539-19.655,71.013-67.3,64.209-116.236-21.278-6.109-48.261-9.743-68.167,4.083-27.33,18.983-19.267,55.564-45.3,75.209C232.062,324.834,208.149,331.4,162.467,316.617Z"
    ><animate id="wave_move1"
        attributeType="xml" attributeName="d"
        from="M162.467,316.617C193.389,357.6,248.584,372,294.822,351.591c44.539-19.655,71.013-67.3,64.209-116.236-21.278-6.109-48.261-9.743-68.167,4.083-27.33,18.983-19.267,55.564-45.3,75.209C232.062,324.834,208.149,331.4,162.467,316.617Z"
        to="M162.467,316.617C193.389,357.6,248.584,372,294.822,351.591c44.539-19.655,71.013-67.3,64.209-116.236-8.346,20.358-22.129,43.786-44.948,50.218-36.726,10.353-66.238-31.948-103.608-21.992C196.141,267.4,178.126,279.58,162.467,316.617Z"
        dur="4s" begin="0s;wave_move2.end;" fill="freeze" calcMode="spline" keyTimes="0;1" keySplines="0.42 0.0 0.58 1.0"
      /><animate id="wave_move2"
        attributeType="xml" attributeName="d"
        from="M162.467,316.617C193.389,357.6,248.584,372,294.822,351.591c44.539-19.655,71.013-67.3,64.209-116.236-8.346,20.358-22.129,43.786-44.948,50.218-36.726,10.353-66.238-31.948-103.608-21.992C196.141,267.4,178.126,279.58,162.467,316.617Z"
        to="M162.467,316.617C193.389,357.6,248.584,372,294.822,351.591c44.539-19.655,71.013-67.3,64.209-116.236-21.278-6.109-48.261-9.743-68.167,4.083-27.33,18.983-19.267,55.564-45.3,75.209C232.062,324.834,208.149,331.4,162.467,316.617Z"
        dur="4s" begin="wave_move1.end;" fill="freeze" calcMode="spline" keyTimes="0;1" keySplines="0.42 0.0 0.58 1.0"
      /></path></g><g id="outer"><path id="outer4" class="cls-5" d="M250,7.6C116.128,7.6,7.6,116.128,7.6,250"/><path id="outer3" class="cls-5" d="M7.6,250C7.6,383.872,116.128,492.4,250,492.4"/><path id="outer2" class="cls-5" d="M250,492.4c133.872,0,242.4-108.525,242.4-242.4"/><path id="outer1" class="cls-5" d="M492.4,250C492.4,116.128,383.872,7.6,250,7.6"/><circle id="scpinner" class="cls-6" cx="250" cy="250" r="110"/><path
      id="scppath"
      class="cls-5"
      d="M250,53.021h55.113l5.1,30.618c13.508,4.884,61.117,23.949,92.017,76.014C434.489,214,426.616,267.378,424.181,281.031l23.965,19.729-55.114,95.459-29.068-10.89c-10.617,8.93-53.158,42.6-116.616,41.647-60.147-.9-100.228-32.32-111.312-41.647l-29.068,10.89L51.854,300.76l23.965-19.729C73.384,267.381,65.507,214,97.764,159.651c30.9-52.066,78.514-71.129,92.019-76.012q2.552-15.309,5.1-30.618Z"/><polygon id="arrow3" points="351.662 308.696 379.821 352.6 388.506 337.878 456.414 377.085 463.265 365.217 395.358 326.011 403.765 311.128 351.662 308.696"/><polygon id="arrow2" points="148.353 308.687 96.235 311.128 104.642 326.011 36.735 365.217 43.586 377.085 111.494 337.878 120.179 352.6 148.353 308.687"/><polygon id="arrow1" points="250.001 132.61 273.944 86.271 256.852 86.111 256.852 7.698 243.148 7.698 243.148 86.111 226.056 86.271 250.001 132.61"/></g></svg>
