
<!DOCTYPE svg PUBLIC "-//W3C//DTD SVG 20010904//EN" "http://www.w3.org/TR/2001/REC-SVG-20010904/DTD/svg10.dtd">
<svg xmlns="http://www.w3.org/2000/svg" viewBox="0 0 1000 300">
  <defs>
    <style>
      .cls-1 {
        opacity: 0;
      }
      .cls-2 {
        fill: #fff;
      }
    </style>
  </defs>
  <g id="bg">
    <g id="bglayer" class="cls-1">
      <rect class="cls-2" width="1000" height="300"/>
      <animate id="tc" attributeType="CSS" attributeName="opacity" from="0" to="0" dur="10s" begin="0s;tc.begin+10s"/>
    </g>
  </g>
  <g id="text">
    <style>
      #text path {
        stroke: black;
        stroke-width: .25px;
      }
    </style>
    <path
      id="w"
      d="M50,92.378H98.926v2.276h-16.9l33.484,94.276h.325l21.619-59.979L125.1,94.654H111.442V92.378h48.763v2.276H142.487l33.485,94.276h.325l34.134-94.276H193.039V92.378h34.784v2.276H213.2L171.1,210.548h-4.063l-27.958-78.021h-.325l-28.282,78.021h-4.389L64.629,94.654H50Z"
      stroke-dasharray="1064"
      stroke-dashoffset="1064"
      fill-opacity="0">
      <animate attributeType="XML" attributeName="stroke-dashoffset" from="1064" to="0" dur="2s" begin="0s;tc.begin+0s" fill="freeze" calcMode="spline" keyTimes="0;1" keySplines="0.42 0.0 0.58 1.0"/>
      <animate attributeType="XML" attributeName="fill-opacity" from="0" to="1" dur="1s" begin="2s;tc.begin+2s" fill="freeze" calcMode="spline" keyTimes="0;1" keySplines="0.42 0.0 0.58 1.0"/>
      <animate attributeType="XML" attributeName="fill-opacity" from="1" to="0" dur="1s" begin="6s;tc.begin+6s" fill="freeze" calcMode="spline" keyTimes="0;1" keySplines="0.42 0.0 0.58 1.0"/>
      <animate attributeType="XML" attributeName="stroke-dashoffset" from="0" to="1064" dur="2s" begin="6s;tc.begin+6s" fill="freeze" calcMode="spline" keyTimes="0;1" keySplines="0.42 0.0 0.58 1.0"/>
    </path>
    <path
      id="e"
      d="M231.073,205.834h18.042V94.654H231.073V92.378h92.975V120.5H322.26a81.725,81.725,0,0,0-4.551-11.135,30.7,30.7,0,0,0-5.852-8.127,21.524,21.524,0,0,0-8.127-4.957,35.113,35.113,0,0,0-11.378-1.626H265.37V144.88h10.565a36.588,36.588,0,0,0,9.1-.975,13.873,13.873,0,0,0,6.42-3.658,21.679,21.679,0,0,0,4.551-7.314,90.074,90.074,0,0,0,3.657-11.947h1.788v50.551h-1.788q-1.139-4.712-2.357-9.1a28.345,28.345,0,0,0-3.413-7.8,16.172,16.172,0,0,0-5.852-5.445,19.492,19.492,0,0,0-9.508-2.032H265.37v58.678h30.721q8.937,0,14.872-3.819a34.6,34.6,0,0,0,9.671-9.1,39.439,39.439,0,0,0,5.527-10.972,57.793,57.793,0,0,0,2.276-9.427h1.788v35.6H231.073Z"
      stroke-dasharray="824"
      stroke-dashoffset="824"
      fill-opacity="0">
      <animate attributeType="XML" attributeName="stroke-dashoffset" from="824" to="0" dur="2s" begin="0s;tc.begin+0s" fill="freeze" calcMode="spline" keyTimes="0;1" keySplines="0.42 0.0 0.58 1.0"/>
      <animate attributeType="XML" attributeName="fill-opacity" from="0" to="1" dur="1s" begin="2s;tc.begin+2s" fill="freeze" calcMode="spline" keyTimes="0;1" keySplines="0.42 0.0 0.58 1.0"/>
      <animate attributeType="XML" attributeName="fill-opacity" from="1" to="0" dur="1s" begin="6s;tc.begin+6s" fill="freeze" calcMode="spline" keyTimes="0;1" keySplines="0.42 0.0 0.58 1.0"/>
      <animate attributeType="XML" attributeName="stroke-dashoffset" from="0" to="824" dur="2s" begin="6s;tc.begin+6s" fill="freeze" calcMode="spline" keyTimes="0;1" keySplines="0.42 0.0 0.58 1.0"/>
    </path>
    <path id="l" d="M345.5,205.834h18.043V94.654H345.5V92.378h52.339v2.276H379.8v111.18h28.933q14.3,0,22.431-8.94t11.866-24.381h1.788v35.6H345.5Z" stroke-dasharray="554" stroke-dashoffset="554" fill-opacity="0">
      <animate attributeType="XML" attributeName="stroke-dashoffset" from="554" to="0" dur="2s" begin="0s;tc.begin+0s" fill="freeze" calcMode="spline" keyTimes="0;1" keySplines="0.42 0.0 0.58 1.0"/>
      <animate attributeType="XML" attributeName="fill-opacity" from="0" to="1" dur="1s" begin="2s;tc.begin+2s" fill="freeze" calcMode="spline" keyTimes="0;1" keySplines="0.42 0.0 0.58 1.0"/>
      <animate attributeType="XML" attributeName="fill-opacity" from="1" to="0" dur="1s" begin="6s;tc.begin+6s" fill="freeze" calcMode="spline" keyTimes="0;1" keySplines="0.42 0.0 0.58 1.0"/>
      <animate attributeType="XML" attributeName="stroke-dashoffset" from="0" to="554" dur="2s" begin="6s;tc.begin+6s" fill="freeze" calcMode="spline" keyTimes="0;1" keySplines="0.42 0.0 0.58 1.0"/>
    </path>
    <path
      id="c"
      d="M561.037,208.11H558.6a15.548,15.548,0,0,0-2.6-2.357,7.845,7.845,0,0,0-4.551-1.057,17.749,17.749,0,0,0-5.282.9q-2.845.894-6.5,2.031a79.514,79.514,0,0,1-8.208,2.032,52.609,52.609,0,0,1-10.078.894,54.776,54.776,0,0,1-19.912-3.738,54.009,54.009,0,0,1-18.286-12.191,70.32,70.32,0,0,1-13.329-18.856q-5.364-10.887-5.364-25.193a63.075,63.075,0,0,1,16.58-42.75,58.679,58.679,0,0,1,18.367-13.41,53.663,53.663,0,0,1,23.081-4.958,37.036,37.036,0,0,1,8.941.976,56.5,56.5,0,0,1,6.99,2.194q3.084,1.219,5.688,2.194a14.29,14.29,0,0,0,5.039.975q3.249,0,4.632-1.056a17.258,17.258,0,0,0,2.52-2.357h2.439v32.509h-1.788a99.078,99.078,0,0,0-3.74-12.191A34.56,34.56,0,0,0,546.9,102.05a30.05,30.05,0,0,0-10.321-7.477q-6.26-2.842-15.523-2.845a36.989,36.989,0,0,0-14.792,2.682,31.209,31.209,0,0,0-10.4,7.152,34.771,34.771,0,0,0-6.745,10.4,63.194,63.194,0,0,0-3.82,12.516,99.156,99.156,0,0,0-1.707,13.329q-.406,6.747-.406,12.76,0,17.067,2.763,28.282t7.721,17.717a26.519,26.519,0,0,0,11.947,9.1,43.94,43.94,0,0,0,15.442,2.6q10.888,0,17.555-3.087a29.755,29.755,0,0,0,10.728-8.047,35.415,35.415,0,0,0,6.176-11.216q2.111-6.255,3.739-12.434h1.788Z"
      stroke-dasharray="606"
      stroke-dashoffset="606"
      fill-opacity="0">
      <animate attributeType="XML" attributeName="stroke-dashoffset" from="606" to="0" dur="2s" begin="0s;tc.begin+0s" fill="freeze" calcMode="spline" keyTimes="0;1" keySplines="0.42 0.0 0.58 1.0"/>
      <animate attributeType="XML" attributeName="fill-opacity" from="0" to="1" dur="1s" begin="2s;tc.begin+2s" fill="freeze" calcMode="spline" keyTimes="0;1" keySplines="0.42 0.0 0.58 1.0"/>
      <animate attributeType="XML" attributeName="fill-opacity" from="1" to="0" dur="1s" begin="6s;tc.begin+6s" fill="freeze" calcMode="spline" keyTimes="0;1" keySplines="0.42 0.0 0.58 1.0"/>
      <animate attributeType="XML" attributeName="stroke-dashoffset" from="0" to="606" dur="2s" begin="6s;tc.begin+6s" fill="freeze" calcMode="spline" keyTimes="0;1" keySplines="0.42 0.0 0.58 1.0"/>
    </path>
    <path
      id="o"
      d="M580.377,150.081a56.54,56.54,0,0,1,5.12-24.056,67.078,67.078,0,0,1,13.166-19.18,61.511,61.511,0,0,1,18.124-12.76,47.9,47.9,0,0,1,20.156-4.633,49.848,49.848,0,0,1,20.887,4.633,60.189,60.189,0,0,1,18.123,12.76,62.863,62.863,0,0,1,12.76,19.18,59.826,59.826,0,0,1,4.8,24.056,59.052,59.052,0,0,1-4.389,22.269,64.567,64.567,0,0,1-12.027,19.343,61,61,0,0,1-17.962,13.654,48.643,48.643,0,0,1-22.187,5.2,51.153,51.153,0,0,1-22.594-5.039,57.943,57.943,0,0,1-17.962-13.41A61.572,61.572,0,0,1,584.6,172.756,62.5,62.5,0,0,1,580.377,150.081Zm18.693,0a146.482,146.482,0,0,0,1.95,25.52,51.4,51.4,0,0,0,6.5,18.205,28.856,28.856,0,0,0,11.7,10.89q7.151,3.579,17.717,3.576,10.4,0,17.636-3.576a28.757,28.757,0,0,0,11.784-10.89,51.459,51.459,0,0,0,6.5-18.205,146.474,146.474,0,0,0,1.951-25.52,156.635,156.635,0,0,0-1.464-21.7,59.375,59.375,0,0,0-5.608-18.693A33.381,33.381,0,0,0,656.2,96.6q-7.4-4.875-19.261-4.876T617.682,96.6a33.368,33.368,0,0,0-11.541,13.085,59.4,59.4,0,0,0-5.608,18.693A156.948,156.948,0,0,0,599.07,150.081Z"
      stroke-dasharray="684"
      stroke-dashoffset="684"
      fill-opacity="0">
      <animate attributeType="XML" attributeName="stroke-dashoffset" from="684" to="0" dur="2s" begin="0s;tc.begin+0s" fill="freeze" calcMode="spline" keyTimes="0;1" keySplines="0.42 0.0 0.58 1.0"/>
      <animate attributeType="XML" attributeName="fill-opacity" from="0" to="1" dur="1s" begin="2s;tc.begin+2s" fill="freeze" calcMode="spline" keyTimes="0;1" keySplines="0.42 0.0 0.58 1.0"/>
      <animate attributeType="XML" attributeName="fill-opacity" from="1" to="0" dur="1s" begin="6s;tc.begin+6s" fill="freeze" calcMode="spline" keyTimes="0;1" keySplines="0.42 0.0 0.58 1.0"/>
      <animate attributeType="XML" attributeName="stroke-dashoffset" from="0" to="684" dur="2s" begin="6s;tc.begin+6s" fill="freeze" calcMode="spline" keyTimes="0;1" keySplines="0.42 0.0 0.58 1.0"/>
    </path>
    <path
      id="m"
      d="M708.784,205.834h18.043V94.654H708.784V92.378h36.573l30.071,87.449h.325l30.07-87.449h35.923v2.276H823.7v111.18h18.042v2.276H789.407v-2.276h18.042V95.629h-.325L768.276,208.272,729.59,96.767h-.324V205.834h18.042v2.276H708.784Z"
      stroke-dasharray="1151"
      stroke-dashoffset="1151"
      fill-opacity="0">
      <animate attributeType="XML" attributeName="stroke-dashoffset" from="1151" to="0" dur="2s" begin="0s;tc.begin+0s" fill="freeze" calcMode="spline" keyTimes="0;1" keySplines="0.42 0.0 0.58 1.0"/>
      <animate attributeType="XML" attributeName="fill-opacity" from="0" to="1" dur="1s" begin="2s;tc.begin+2s" fill="freeze" calcMode="spline" keyTimes="0;1" keySplines="0.42 0.0 0.58 1.0"/>
      <animate attributeType="XML" attributeName="fill-opacity" from="1" to="0" dur="1s" begin="6s;tc.begin+6s" fill="freeze" calcMode="spline" keyTimes="0;1" keySplines="0.42 0.0 0.58 1.0"/>
      <animate attributeType="XML" attributeName="stroke-dashoffset" from="0" to="1151" dur="2s" begin="6s;tc.begin+6s" fill="freeze" calcMode="spline" keyTimes="0;1" keySplines="0.42 0.0 0.58 1.0"/>
    </path>
    <path
      id="e2"
      d="M850.849,205.834h18.042V94.654H850.849V92.378h92.975V120.5h-1.788a81.725,81.725,0,0,0-4.551-11.135,30.7,30.7,0,0,0-5.852-8.127,21.517,21.517,0,0,0-8.127-4.957,35.117,35.117,0,0,0-11.378-1.626H885.145V144.88H895.71a36.582,36.582,0,0,0,9.1-.975,13.871,13.871,0,0,0,6.421-3.658,21.7,21.7,0,0,0,4.551-7.314,90.074,90.074,0,0,0,3.657-11.947h1.788v50.551h-1.788q-1.139-4.712-2.357-9.1a28.347,28.347,0,0,0-3.414-7.8,16.169,16.169,0,0,0-5.851-5.445,19.493,19.493,0,0,0-9.509-2.032H885.145v58.678h30.721q8.939,0,14.873-3.819a34.632,34.632,0,0,0,9.671-9.1,39.381,39.381,0,0,0,5.526-10.972,57.481,57.481,0,0,0,2.276-9.427H950v35.6H850.849Z"
      stroke-dasharray="824"
      stroke-dashoffset="824"
      fill-opacity="0">
      <animate attributeType="XML" attributeName="stroke-dashoffset" from="824" to="0" dur="2s" begin="0s;tc.begin+0s" fill="freeze" calcMode="spline" keyTimes="0;1" keySplines="0.42 0.0 0.58 1.0"/>
      <animate attributeType="XML" attributeName="fill-opacity" from="0" to="1" dur="1s" begin="2s;tc.begin+2s" fill="freeze" calcMode="spline" keyTimes="0;1" keySplines="0.42 0.0 0.58 1.0"/>
      <animate attributeType="XML" attributeName="fill-opacity" from="1" to="0" dur="1s" begin="6s;tc.begin+6s" fill="freeze" calcMode="spline" keyTimes="0;1" keySplines="0.42 0.0 0.58 1.0"/>
      <animate attributeType="XML" attributeName="stroke-dashoffset" from="0" to="824" dur="2s" begin="6s;tc.begin+6s" fill="freeze" calcMode="spline" keyTimes="0;1" keySplines="0.42 0.0 0.58 1.0"/>
    </path>
  </g>
</svg>
